<svg width="14" height="16" viewBox="0 0 14 16" fill="none" xmlns="http://www.w3.org/2000/svg">
<path d="M5.125 0.5C4.50368 0.5 4 1.00368 4 1.625V2.375C4 2.99632 4.50368 3.5 5.125 3.5H8.875C9.49632 3.5 10 2.99632 10 2.375V1.625C10 1.00368 9.49632 0.5 8.875 0.5H5.125Z" fill="#D6151A"/>
<path fill-rule="evenodd" clip-rule="evenodd" d="M0.90901 2.65771C1.33599 2.23073 1.93157 2.08039 2.875 2.02746V2.375C2.875 3.61764 3.88236 4.625 5.125 4.625H8.875C10.1176 4.625 11.125 3.61764 11.125 2.375V2.02746C12.0684 2.08039 12.664 2.23073 13.091 2.65771C13.75 3.31672 13.75 4.37738 13.75 6.4987V10.9987C13.75 13.12 13.75 14.1807 13.091 14.8397C12.432 15.4987 11.3713 15.4987 9.25 15.4987H4.75C2.62868 15.4987 1.56802 15.4987 0.90901 14.8397C0.25 14.1807 0.25 13.12 0.25 10.9987V6.4987C0.25 4.37738 0.25 3.31672 0.90901 2.65771ZM7.5625 7.25C7.5625 6.93934 7.31066 6.6875 7 6.6875C6.68934 6.6875 6.4375 6.93934 6.4375 7.25L6.4375 8.93752H4.75C4.43934 8.93752 4.1875 9.18936 4.1875 9.50002C4.1875 9.81068 4.43934 10.0625 4.75 10.0625H6.4375V11.75C6.4375 12.0607 6.68934 12.3125 7 12.3125C7.31066 12.3125 7.5625 12.0607 7.5625 11.75L7.5625 10.0625H9.25C9.56066 10.0625 9.8125 9.81068 9.8125 9.50002C9.8125 9.18936 9.56066 8.93752 9.25 8.93752H7.5625V7.25Z" fill="#D6151A"/>
</svg>
