<svg width="16" height="16" viewBox="0 0 16 16" fill="none" xmlns="http://www.w3.org/2000/svg">
<path d="M15.4998 8.52339C15.4987 9.62557 15.4903 10.5624 15.4277 11.3311C15.355 12.2231 15.2061 12.9684 14.8727 13.5875C14.7257 13.8605 14.545 14.105 14.325 14.325C13.7007 14.9493 12.9054 15.2321 11.8974 15.3676C10.9127 15.5 9.65054 15.5 8.04003 15.5H7.95997C6.34946 15.5 5.08734 15.5 4.10259 15.3676C3.09463 15.2321 2.29926 14.9493 1.67498 14.325C1.12153 13.7716 0.83572 13.0827 0.683733 12.2282C0.53443 11.3888 0.507118 10.3444 0.501444 9.04754C0.5 8.71767 0.5 8.36878 0.5 8.0007V7.95997C0.499991 6.34947 0.499984 5.08734 0.632382 4.10259C0.767898 3.09463 1.05069 2.29927 1.67498 1.67498C2.29927 1.05069 3.09463 0.767898 4.10259 0.632382C4.97834 0.51464 6.1051 0.501612 7.47652 0.500177C7.76551 0.499875 8 0.734269 8 1.02325C8 1.31224 7.7654 1.5464 7.47642 1.5467C6.08562 1.54817 5.05063 1.56085 4.24203 1.66956C3.35012 1.78948 2.81241 2.01754 2.41497 2.41497C2.01754 2.81241 1.78948 3.35012 1.66956 4.24203C1.54762 5.14899 1.54651 6.34077 1.54651 8C1.54651 8.20262 1.54651 8.39858 1.54675 8.58832L2.24522 7.97716C2.88099 7.42087 3.83919 7.45278 4.43654 8.05013L7.42937 11.043C7.90884 11.5224 8.66358 11.5878 9.21835 11.1979L9.42639 11.0517C10.2247 10.4907 11.3048 10.5557 12.03 11.2084L14.0048 12.9857C14.2036 12.5683 14.3216 12.0198 14.3846 11.2461C14.444 10.5171 14.4522 9.63161 14.4533 8.52341C14.4536 8.23443 14.6878 8 14.9767 8C15.2657 8 15.5001 8.2344 15.4998 8.52339Z" fill="#D6151A"/>
<path fill-rule="evenodd" clip-rule="evenodd" d="M12.125 7.25C10.534 7.25 9.73851 7.25 9.24426 6.75574C8.75 6.26149 8.75 5.46599 8.75 3.875C8.75 2.28401 8.75 1.48851 9.24426 0.994257C9.73851 0.5 10.534 0.5 12.125 0.5C13.716 0.5 14.5115 0.5 15.0057 0.994257C15.5 1.48851 15.5 2.28401 15.5 3.875C15.5 5.46599 15.5 6.26149 15.0057 6.75574C14.5115 7.25 13.716 7.25 12.125 7.25ZM12.6875 2.375C12.6875 2.06434 12.4357 1.8125 12.125 1.8125C11.8143 1.8125 11.5625 2.06434 11.5625 2.375V3.3125H10.625C10.3143 3.3125 10.0625 3.56434 10.0625 3.875C10.0625 4.18566 10.3143 4.4375 10.625 4.4375H11.5625V5.375C11.5625 5.68566 11.8143 5.9375 12.125 5.9375C12.4357 5.9375 12.6875 5.68566 12.6875 5.375V4.4375H13.625C13.9357 4.4375 14.1875 4.18566 14.1875 3.875C14.1875 3.56434 13.9357 3.3125 13.625 3.3125H12.6875V2.375Z" fill="#D6151A"/>
</svg>
