<svg width="18" height="13" viewBox="0 0 18 13" fill="none" xmlns="http://www.w3.org/2000/svg">
<g clip-path="url(#clip0_15965_2398)">
<path d="M8.29345 12.5025H16.5869C17.1064 12.5025 17.4717 12.4293 17.683 12.2829C17.8943 12.1365 18 11.9192 18 11.6308C18 11.2113 17.8712 10.7679 17.6137 10.3004C17.3562 9.83288 16.9864 9.39487 16.5044 8.98634C16.0224 8.57782 15.4391 8.24575 14.7546 7.99015C14.0701 7.73455 13.2986 7.60675 12.4402 7.60675C11.5862 7.60675 10.817 7.73455 10.1325 7.99015C9.44792 8.24575 8.86354 8.57782 8.37932 8.98634C7.89511 9.39487 7.52534 9.83288 7.27002 10.3004C7.01466 10.7679 6.88698 11.2113 6.88698 11.6308C6.88698 11.9192 6.99154 12.1365 7.20065 12.2829C7.40976 12.4293 7.77403 12.5025 8.29345 12.5025ZM12.4468 6.43365C12.9178 6.43365 13.3536 6.30585 13.7542 6.05025C14.1548 5.79465 14.4762 5.44839 14.7183 5.01148C14.9604 4.57456 15.0814 4.08302 15.0814 3.53687C15.0814 2.99946 14.9604 2.51776 14.7183 2.09176C14.4762 1.66577 14.1548 1.33044 13.7542 1.08576C13.3536 0.841087 12.9178 0.71875 12.4468 0.71875C11.9758 0.71875 11.54 0.843272 11.1394 1.09232C10.7388 1.34136 10.4163 1.67997 10.172 2.10815C9.92774 2.53633 9.8056 3.01694 9.8056 3.54999C9.8056 4.09176 9.92666 4.58002 10.1688 5.01475C10.4109 5.44949 10.7322 5.79465 11.1328 6.05025C11.5334 6.30585 11.9714 6.43365 12.4468 6.43365ZM1.16214 12.5025H6.17388C6.0022 12.2534 5.92076 11.9541 5.92956 11.6046C5.93837 11.255 6.01981 10.888 6.17388 10.5035C6.32795 10.1191 6.54034 9.7466 6.81105 9.38612C7.08178 9.02565 7.39543 8.70779 7.75199 8.43255C7.38222 8.18786 6.95853 7.98579 6.48092 7.82633C6.0033 7.66684 5.45634 7.58708 4.84006 7.58708C4.09611 7.58708 3.4259 7.70833 2.82942 7.95083C2.23294 8.19332 1.7245 8.51227 1.30411 8.90769C0.883712 9.30311 0.561262 9.73456 0.336757 10.2021C0.112252 10.6695 0 11.1305 0 11.5849C0 11.8777 0.0891416 12.1038 0.267425 12.2632C0.445708 12.4227 0.743947 12.5025 1.16214 12.5025ZM4.84006 6.58438C5.25385 6.58438 5.63463 6.47297 5.98239 6.25014C6.33015 6.02731 6.60968 5.72475 6.82099 5.34244C7.03226 4.96014 7.1379 4.53305 7.1379 4.06118C7.1379 3.58931 7.03226 3.16877 6.82099 2.79957C6.60968 2.43038 6.32905 2.13983 5.97909 1.92792C5.62913 1.71602 5.24945 1.61006 4.84006 1.61006C4.43507 1.61006 4.05759 1.7182 3.70763 1.93448C3.35767 2.15075 3.07483 2.44458 2.85914 2.81596C2.64343 3.18734 2.53778 3.60678 2.54219 4.07429C2.54219 4.54179 2.64784 4.9656 2.85914 5.34572C3.07044 5.72584 3.35106 6.02731 3.70102 6.25014C4.05099 6.47297 4.43067 6.58438 4.84006 6.58438Z" fill="#D6151A"/>
</g>
<defs>
<clipPath id="clip0_15965_2398">
<rect width="18" height="12" fill="white" transform="translate(0 0.5)"/>
</clipPath>
</defs>
</svg>
