<svg width="14" height="15" viewBox="0 0 14 15" fill="none" xmlns="http://www.w3.org/2000/svg">
<path d="M10.7512 3.74918C9.89687 2.89482 8.99899 2.15219 8.09641 1.53537C9.12949 1.00957 10.1077 0.693501 10.9564 0.595582C12.0267 0.47209 12.8175 0.699513 13.3092 1.19122C13.8009 1.68294 14.0283 2.47375 13.9049 3.54407C13.8069 4.39274 13.4909 5.37097 12.9651 6.40405C12.3482 5.50146 11.6056 4.60355 10.7512 3.74918Z" fill="#D6151A"/>
<path fill-rule="evenodd" clip-rule="evenodd" d="M9.95573 4.54467C10.9108 5.49971 11.712 6.5065 12.3397 7.50033C11.712 8.49409 10.9108 9.5008 9.95588 10.4558C9.00081 11.4108 7.994 12.2121 7.00014 12.8398C6.00633 12.2121 4.99957 11.4109 4.04456 10.4559C3.08956 9.50087 2.28839 8.49413 1.66071 7.50033C2.28841 6.50646 3.08963 5.49964 4.04471 4.54457C4.99967 3.5896 6.00638 2.78844 7.00014 2.16077C7.99395 2.78846 9.00071 3.58965 9.95573 4.54467ZM7 9.37573C8.03553 9.37573 8.875 8.53627 8.875 7.50073C8.875 6.4652 8.03553 5.62573 7 5.62573C5.96447 5.62573 5.125 6.4652 5.125 7.50073C5.125 8.53627 5.96447 9.37573 7 9.37573Z" fill="#D6151A"/>
<path d="M8.09644 13.4651C8.99905 12.8483 9.89698 12.1056 10.7514 11.2513C11.6057 10.397 12.3482 9.49915 12.965 8.59664C13.4908 9.62966 13.8068 10.6078 13.9047 11.4565C14.0282 12.5267 13.8008 13.3175 13.3091 13.8092C12.8174 14.3009 12.0266 14.5283 10.9563 14.4049C10.1077 14.307 9.12947 13.9909 8.09644 13.4651Z" fill="#D6151A"/>
<path d="M3.24906 11.2514C4.1034 12.1057 5.00126 12.8483 5.90382 13.4651C4.87082 13.9909 3.89267 14.3069 3.04407 14.4048C1.97383 14.5282 1.18306 14.3008 0.691371 13.8091C0.199681 13.3174 -0.0277432 12.5266 0.0957147 11.4564C0.193605 10.6078 0.509621 9.62965 1.03534 8.59665C1.65214 9.49919 2.39474 10.397 3.24906 11.2514Z" fill="#D6151A"/>
<path d="M1.03531 6.40403C1.65215 5.50141 2.39481 4.60347 3.24921 3.74907C4.10351 2.89478 5.00133 2.15218 5.90384 1.53539C4.87081 1.00963 3.89262 0.693584 3.04398 0.595679C1.97371 0.472205 1.18292 0.699628 0.691223 1.19133C0.199518 1.68304 -0.0279048 2.47384 0.0955778 3.54413C0.193489 4.39278 0.509543 5.37098 1.03531 6.40403Z" fill="#D6151A"/>
</svg>
