<svg width="14" height="14" viewBox="0 0 14 14" fill="none" xmlns="http://www.w3.org/2000/svg">
<path d="M3.39208 7.69869C3.25557 7.69869 3.14182 7.6532 3.05082 7.5622C2.95982 7.47121 2.91432 7.35745 2.91432 7.22093C2.91432 7.08898 2.95982 6.97751 3.05082 6.88653C3.14182 6.79552 3.25557 6.75002 3.39208 6.75002H6.48384V2.62084C6.48384 2.48889 6.52934 2.37741 6.62035 2.28641C6.71135 2.19541 6.82282 2.1499 6.95477 2.1499C7.09126 2.1499 7.20502 2.19541 7.29606 2.28641C7.38706 2.37741 7.43256 2.48889 7.43256 2.62084V7.22093C7.43256 7.35745 7.38706 7.47121 7.29606 7.5622C7.20502 7.6532 7.09126 7.69869 6.95477 7.69869H3.39208ZM6.9616 13.9232C7.91259 13.9232 8.80781 13.7412 9.64727 13.3772C10.4868 13.0132 11.2273 12.5104 11.8688 11.8688C12.5104 11.2273 13.0132 10.4868 13.3772 9.64727C13.7412 8.80781 13.9232 7.91259 13.9232 6.9616C13.9232 6.01064 13.7412 5.11541 13.3772 4.27592C13.0132 3.43644 12.5104 2.69592 11.8688 2.05435C11.2273 1.41279 10.4856 0.910013 9.64384 0.546008C8.8021 0.182003 7.90574 0 6.95477 0C6.00381 0 5.10859 0.182003 4.2691 0.546008C3.42961 0.910013 2.69023 1.41279 2.05094 2.05435C1.41166 2.69592 0.910013 3.43644 0.546008 4.27592C0.182003 5.11541 0 6.01064 0 6.9616C0 7.91259 0.182003 8.80781 0.546008 9.64727C0.910013 10.4868 1.41279 11.2273 2.05435 11.8688C2.69591 12.5104 3.43644 13.0132 4.27592 13.3772C5.11541 13.7412 6.01064 13.9232 6.9616 13.9232Z" fill="#EE2D28"/>
</svg>
