<svg width="18" height="18" viewBox="0 0 18 18" fill="none" xmlns="http://www.w3.org/2000/svg">
<path d="M8.81532 0.392558C8.74149 0.410136 8.63602 0.448808 8.57626 0.480449C8.40751 0.564824 1.51688 6.06678 1.33407 6.26014C0.947351 6.66795 0.964929 7.29725 1.36923 7.67693C1.60126 7.8949 1.75594 7.95818 2.07587 7.9617C2.28329 7.96521 2.37469 7.94764 2.49774 7.88787C2.58563 7.84217 4.05165 6.69256 5.75673 5.33201C7.4618 3.97146 8.88212 2.84998 8.91376 2.83592C8.9454 2.82537 9.00165 2.81482 9.0368 2.81482C9.09305 2.81482 10.1899 3.67967 14.4087 7.05115C14.9149 7.45545 15.4071 7.82811 15.4985 7.87732C15.7341 7.99686 16.1208 8.00037 16.3634 7.88084C16.5884 7.76834 16.7606 7.59256 16.8696 7.35701C16.9434 7.19178 16.954 7.13201 16.9399 6.89646C16.9188 6.57303 16.8415 6.40779 16.6059 6.18982C16.2825 5.88748 9.56415 0.547246 9.41649 0.469902C9.23368 0.378496 8.99462 0.346855 8.81532 0.392558Z" fill="#D6151A"/>
<path d="M6.99609 5.2418C3.42773 8.08594 3.04102 8.3918 2.92852 8.45156L2.8125 8.51133V10.0934V11.6789L2.89336 11.6578C3.09727 11.5945 3.51211 11.5945 3.77227 11.6508C4.16602 11.7387 4.44375 11.8898 4.73203 12.1781C5.13633 12.5824 5.32266 13.0324 5.31914 13.5879C5.31562 13.8656 5.29453 13.9887 5.18555 14.3332L5.16094 14.4141H5.77617H6.39492L6.64102 14.1715C6.84844 13.9676 7.34062 13.602 7.46367 13.5598C7.48125 13.5563 7.43203 13.4508 7.35469 13.3313C6.51445 12.0305 7.44609 10.3008 8.98945 10.3008C9.55195 10.3008 9.99492 10.4836 10.3852 10.8773C10.7719 11.2641 10.9688 11.7316 10.9688 12.252C10.9688 12.6773 10.8281 13.1098 10.5891 13.4262C10.5398 13.493 10.5152 13.5527 10.5363 13.5598C10.6594 13.602 11.1621 13.9711 11.366 14.175L11.6121 14.4141H12.2203C12.5578 14.4141 12.832 14.407 12.832 14.3965C12.832 14.3859 12.7969 14.277 12.7582 14.1574C12.6598 13.8691 12.6527 13.3594 12.7406 13.0641C12.8496 12.702 13.0008 12.4418 13.268 12.1781C13.5562 11.8898 13.834 11.7387 14.2277 11.6508C14.4879 11.5945 14.9027 11.5945 15.1102 11.6578L15.1875 11.6789V10.1004V8.52188L15.0047 8.39883C14.9027 8.33203 13.5176 7.23867 11.925 5.96602C10.3324 4.69688 9.01758 3.65625 9.00352 3.65625C8.98945 3.65625 8.08594 4.36992 6.99609 5.2418ZM10.9055 6.6375C10.9723 6.7043 10.9688 7.83984 10.902 7.9207C10.8598 7.97344 10.684 7.98047 9.00352 7.98047C7.60781 7.98047 7.14023 7.96992 7.10859 7.93828C7.08047 7.91016 7.06641 7.71328 7.06641 7.29141C7.06641 6.70078 7.06992 6.6832 7.14727 6.62695C7.21406 6.57773 7.43203 6.57422 9.04219 6.58125C10.4766 6.58828 10.8703 6.60234 10.9055 6.6375Z" fill="#D6151A"/>
<path d="M8.53884 11.0828C8.2154 11.2199 7.98337 11.4484 7.8322 11.7754C7.77595 11.8949 7.75837 12.0074 7.75837 12.25C7.75485 12.5418 7.7654 12.5875 7.86735 12.7984C8.00446 13.0762 8.22595 13.2906 8.50368 13.4207C8.67243 13.498 8.75329 13.5156 9.0029 13.5156C9.25251 13.5156 9.33337 13.498 9.50212 13.4207C9.76931 13.2977 10.0224 13.0551 10.149 12.8055C10.2404 12.6227 10.2509 12.5664 10.2509 12.2676C10.2509 11.9793 10.2369 11.9055 10.156 11.7332C10.0365 11.4766 9.79392 11.234 9.53727 11.1145C9.24899 10.9773 8.82009 10.9668 8.53884 11.0828Z" fill="#D6151A"/>
<path d="M3.04784 12.3418C2.42557 12.5 2.01776 13.1258 2.1162 13.7762C2.17948 14.184 2.42909 14.518 2.80526 14.7043C3.0162 14.8098 3.06893 14.8203 3.35721 14.8203C3.64549 14.8203 3.69823 14.8098 3.90917 14.7043C4.54198 14.3914 4.80214 13.6531 4.49979 13.0238C4.2994 12.6125 3.88456 12.3383 3.43456 12.3207C3.29393 12.3137 3.12167 12.3242 3.04784 12.3418Z" fill="#D6151A"/>
<path d="M14.2723 12.3594C13.9067 12.4754 13.5657 12.8094 13.4426 13.168C13.3548 13.4141 13.3653 13.7832 13.4637 14.0363C13.5727 14.3141 13.8048 14.5637 14.093 14.7043C14.304 14.8098 14.3567 14.8203 14.645 14.8203C14.9333 14.8203 14.986 14.8098 15.1969 14.7043C16.1497 14.2367 16.1286 12.8727 15.1618 12.4227C14.9262 12.3102 14.5114 12.282 14.2723 12.3594Z" fill="#D6151A"/>
<path d="M8.64883 13.9254C8.06172 14.0027 7.57305 14.2559 7.11953 14.7129C6.84531 14.9836 6.77148 15.0855 6.63438 15.3668C6.48672 15.6762 6.36719 16.0523 6.36719 16.2316V16.3125H9.01797H11.6688L11.623 16.0734C11.5633 15.7746 11.5 15.5953 11.3418 15.3C10.8426 14.3438 9.72813 13.7777 8.64883 13.9254Z" fill="#D6151A"/>
<path d="M2.79844 15.2754C2.04961 15.4406 1.40625 15.9188 1.03008 16.5938C0.903516 16.8188 0.759375 17.2406 0.724219 17.4832L0.703125 17.6484H3.35742C5.91328 17.6484 6.01523 17.6449 6.01523 17.5852C6.01523 17.4305 5.86406 16.9418 5.7375 16.6816C5.39648 15.9891 4.7707 15.4898 3.99727 15.293C3.67031 15.2121 3.12891 15.2016 2.79844 15.2754Z" fill="#D6151A"/>
<path d="M13.9961 15.293C13.2051 15.5039 12.5758 16.0242 12.2383 16.752C12.1188 17.0016 11.9922 17.441 11.9922 17.5922C11.9922 17.6414 12.2699 17.6484 14.65 17.6484H17.3043L17.2832 17.4797C17.248 17.2406 17.1039 16.8187 16.9773 16.5938C16.6469 15.9996 16.0703 15.532 15.4199 15.3281C15.0578 15.2121 14.3582 15.1945 13.9961 15.293Z" fill="#D6151A"/>
</svg>
