<svg width="22" height="25" viewBox="0 0 22 25" fill="none" xmlns="http://www.w3.org/2000/svg">
<path d="M11.0059 21.6602H19.4238C21.0189 21.6602 21.8164 21.1394 21.8164 20.0977C21.8164 19.4596 21.6227 18.7793 21.2354 18.0566C20.848 17.334 20.2848 16.652 19.5459 16.0107C18.807 15.3694 17.9102 14.847 16.8555 14.4434C15.8008 14.0397 14.6126 13.8379 13.291 13.8379C12.4056 13.8379 11.5804 13.9339 10.8154 14.126C10.0504 14.3181 9.35547 14.5801 8.73047 14.9121C8.93229 15.0748 9.12597 15.249 9.31152 15.4346C9.49707 15.6201 9.67122 15.8203 9.83398 16.0352C10.3093 15.8138 10.8366 15.638 11.416 15.5078C11.9955 15.3776 12.6205 15.3125 13.291 15.3125C14.4108 15.3125 15.402 15.4736 16.2646 15.7959C17.1273 16.1182 17.8548 16.5234 18.4473 17.0117C19.0397 17.5 19.4873 18.0062 19.79 18.5303C20.0927 19.0544 20.2441 19.515 20.2441 19.9121C20.2441 20.0163 20.2164 20.0879 20.1611 20.127C20.1058 20.166 20.0163 20.1855 19.8926 20.1855H11.25C11.2435 20.4394 11.2207 20.6901 11.1816 20.9375C11.1425 21.1849 11.084 21.4258 11.0059 21.6602ZM13.291 12.627C14.0657 12.627 14.7721 12.4187 15.4102 12.002C16.0482 11.5853 16.5576 11.0303 16.9385 10.3369C17.3194 9.64355 17.5098 8.87696 17.5098 8.03711C17.5098 7.20378 17.321 6.4502 16.9434 5.77637C16.5658 5.10254 16.058 4.56705 15.4199 4.16992C14.7819 3.77279 14.0723 3.57422 13.291 3.57422C12.5228 3.57422 11.8181 3.77604 11.1768 4.17969C10.5355 4.58334 10.0244 5.1237 9.64355 5.80078C9.2627 6.47787 9.07227 7.22982 9.07227 8.05664C9.07878 8.88997 9.27246 9.65333 9.65332 10.3467C10.0342 11.04 10.5436 11.5934 11.1816 12.0068C11.8197 12.4203 12.5228 12.627 13.291 12.627ZM13.291 11.1523C12.8157 11.1523 12.3779 11.014 11.9775 10.7373C11.5772 10.4606 11.2549 10.0879 11.0107 9.61914C10.7666 9.15039 10.6445 8.62956 10.6445 8.05664C10.6445 7.49023 10.765 6.98079 11.0059 6.52832C11.2468 6.07585 11.5674 5.71615 11.9678 5.44922C12.3682 5.18229 12.8093 5.04883 13.291 5.04883C13.7793 5.04883 14.2236 5.17904 14.624 5.43945C15.0244 5.69987 15.3434 6.05632 15.5811 6.50879C15.8187 6.96126 15.9375 7.4707 15.9375 8.03711C15.9375 8.61002 15.8171 9.13248 15.5762 9.60449C15.3353 10.0765 15.0146 10.4525 14.6143 10.7324C14.2139 11.0123 13.7728 11.1523 13.291 11.1523Z" fill="#8E8E8E"/>
<path d="M4.96094 24.9121C5.63151 24.9121 6.26628 24.7819 6.86523 24.5215C7.46419 24.2611 7.99316 23.9031 8.45215 23.4473C8.91113 22.9916 9.27083 22.4642 9.53125 21.8652C9.79167 21.2663 9.92188 20.6283 9.92188 19.9512C9.92188 19.2676 9.7933 18.6263 9.53613 18.0273C9.27897 17.4284 8.92253 16.9011 8.4668 16.4453C8.01107 15.9896 7.48372 15.6332 6.88477 15.376C6.28581 15.1188 5.64453 14.9902 4.96094 14.9902C4.28385 14.9902 3.64583 15.1188 3.04688 15.376C2.44792 15.6332 1.92057 15.9912 1.46484 16.4502C1.00911 16.9092 0.651042 17.4366 0.390625 18.0322C0.130208 18.628 0 19.2676 0 19.9512C0 20.6348 0.130208 21.2761 0.390625 21.875C0.651042 22.474 1.00911 23.0013 1.46484 23.457C1.92057 23.9128 2.44792 24.2692 3.04688 24.5264C3.64583 24.7836 4.28385 24.9121 4.96094 24.9121Z" fill="#DF0000"/>
<path d="M3 20.75C3 20.0925 3 19.7638 3.18159 19.5425C3.21484 19.502 3.25198 19.4648 3.29249 19.4316C3.51376 19.25 3.8425 19.25 4.5 19.25H5.5C6.1575 19.25 6.48624 19.25 6.70751 19.4316C6.74802 19.4648 6.78516 19.502 6.81841 19.5425C7 19.7638 7 20.0925 7 20.75V20.75C7 21.4075 7 21.7362 6.81841 21.9575C6.78516 21.998 6.74802 22.0352 6.70751 22.0684C6.48624 22.25 6.1575 22.25 5.5 22.25H4.5C3.8425 22.25 3.51376 22.25 3.29249 22.0684C3.25198 22.0352 3.21484 21.998 3.18159 21.9575C3 21.7362 3 21.4075 3 20.75V20.75Z" stroke="white" stroke-width="0.8"/>
<path d="M6 19V18.75C6 18.1977 5.55228 17.75 5 17.75V17.75C4.44772 17.75 4 18.1977 4 18.75V19" stroke="white" stroke-width="0.8" stroke-linecap="round"/>
<ellipse cx="5" cy="20.75" rx="0.5" ry="0.5" fill="white"/>
</svg>
