<svg width="16" height="17" viewBox="0 0 16 17" fill="none" xmlns="http://www.w3.org/2000/svg">
<path d="M15.1702 7.30552L14.1502 6.04276C13.9552 5.80299 13.7977 5.35543 13.7977 5.03574V3.67707C13.7977 2.8299 13.1452 2.13458 12.3502 2.13458H11.0752C10.7827 2.13458 10.3552 1.96675 10.1302 1.75895L8.94516 0.672013C8.42766 0.200475 7.58016 0.200475 7.05516 0.672013L5.87766 1.76694C5.65266 1.96675 5.22516 2.13458 4.93266 2.13458H3.63516C2.84016 2.13458 2.18766 2.8299 2.18766 3.67707V5.04374C2.18766 5.35543 2.03016 5.80299 1.84266 6.04276L0.830156 7.31352C0.395156 7.86498 0.395156 8.7601 0.830156 9.31156L1.84266 10.5823C2.03016 10.8221 2.18766 11.2696 2.18766 11.5813V12.948C2.18766 13.7952 2.84016 14.4905 3.63516 14.4905H4.93266C5.22516 14.4905 5.65266 14.6583 5.87766 14.8661L7.06266 15.9531C7.58016 16.4246 8.42766 16.4246 8.95266 15.9531L10.1377 14.8661C10.3627 14.6583 10.7827 14.4905 11.0827 14.4905H12.3577C13.1527 14.4905 13.8052 13.7952 13.8052 12.948V11.5893C13.8052 11.2776 13.9627 10.8221 14.1577 10.5823L15.1777 9.31955C15.6127 8.76809 15.6127 7.85698 15.1702 7.30552ZM11.1202 6.80202L7.49766 10.6622C7.39266 10.7741 7.25016 10.8381 7.10016 10.8381C6.95016 10.8381 6.80766 10.7741 6.70266 10.6622L4.88766 8.72813C4.67016 8.49636 4.67016 8.11273 4.88766 7.88096C5.10516 7.64919 5.46516 7.64919 5.68266 7.88096L7.10016 9.39148L10.3252 5.95485C10.5427 5.72307 10.9027 5.72307 11.1202 5.95485C11.3377 6.18662 11.3377 6.57024 11.1202 6.80202Z" fill="#1576F0"/>
</svg>
