<svg width="16" height="15" viewBox="0 0 16 15" fill="none" xmlns="http://www.w3.org/2000/svg">
<path fill-rule="evenodd" clip-rule="evenodd" d="M14.3359 4.66927C14.3359 3.73296 14.3359 3.26481 14.1112 2.92851C14.0139 2.78292 13.8889 2.65792 13.7434 2.56064C13.4492 2.3641 13.0542 2.33947 12.3332 2.33638C12.336 2.53064 12.336 2.73364 12.3359 2.94295L12.3359 3.0026V3.83594H13.0026C13.2787 3.83594 13.5026 4.05979 13.5026 4.33594C13.5026 4.61208 13.2787 4.83594 13.0026 4.83594H12.3359V5.83594H13.0026C13.2787 5.83594 13.5026 6.05979 13.5026 6.33594C13.5026 6.61208 13.2787 6.83594 13.0026 6.83594H12.3359V7.83594H13.0026C13.2787 7.83594 13.5026 8.05979 13.5026 8.33594C13.5026 8.61208 13.2787 8.83594 13.0026 8.83594H12.3359V13.1693H11.3359V3.0026C11.3359 1.74553 11.3359 1.11699 10.9454 0.726462C10.5549 0.335938 9.92635 0.335938 8.66927 0.335938H7.33594C6.07886 0.335938 5.45032 0.335938 5.05979 0.726462C4.66927 1.11699 4.66927 1.74553 4.66927 3.0026V13.1693H3.66927V8.83594H3.0026C2.72646 8.83594 2.5026 8.61208 2.5026 8.33594C2.5026 8.05979 2.72646 7.83594 3.0026 7.83594H3.66927V6.83594H3.0026C2.72646 6.83594 2.5026 6.61208 2.5026 6.33594C2.5026 6.05979 2.72646 5.83594 3.0026 5.83594H3.66927V4.83594H3.0026C2.72646 4.83594 2.5026 4.61208 2.5026 4.33594C2.5026 4.05979 2.72646 3.83594 3.0026 3.83594H3.66927V3.0026L3.66927 2.94294C3.66924 2.73363 3.66922 2.53064 3.67196 2.33638C2.95102 2.33947 2.55599 2.3641 2.26184 2.56064C2.11626 2.65792 1.99126 2.78292 1.89398 2.92851C1.66927 3.26481 1.66927 3.73296 1.66927 4.66927V13.1693H1.33594C1.0598 13.1693 0.835937 13.3931 0.835938 13.6693C0.835938 13.9454 1.0598 14.1693 1.33594 14.1693H14.6693C14.9454 14.1693 15.1693 13.9454 15.1693 13.6693C15.1693 13.3931 14.9454 13.1693 14.6693 13.1693H14.3359V4.66927ZM8.0026 1.83594C8.27874 1.83594 8.5026 2.05979 8.5026 2.33594V3.16927H9.33594C9.61208 3.16927 9.83594 3.39313 9.83594 3.66927C9.83594 3.94541 9.61208 4.16927 9.33594 4.16927H8.5026V5.0026C8.5026 5.27875 8.27874 5.5026 8.0026 5.5026C7.72646 5.5026 7.5026 5.27875 7.5026 5.0026V4.16927H6.66927C6.39313 4.16927 6.16927 3.94541 6.16927 3.66927C6.16927 3.39313 6.39313 3.16927 6.66927 3.16927H7.5026V2.33594C7.5026 2.05979 7.72646 1.83594 8.0026 1.83594ZM6.16927 7.0026C6.16927 6.72646 6.39313 6.5026 6.66927 6.5026H9.33594C9.61208 6.5026 9.83594 6.72646 9.83594 7.0026C9.83594 7.27875 9.61208 7.5026 9.33594 7.5026H6.66927C6.39313 7.5026 6.16927 7.27875 6.16927 7.0026ZM6.16927 9.0026C6.16927 8.72646 6.39313 8.5026 6.66927 8.5026H9.33594C9.61208 8.5026 9.83594 8.72646 9.83594 9.0026C9.83594 9.27874 9.61208 9.5026 9.33594 9.5026H6.66927C6.39313 9.5026 6.16927 9.27874 6.16927 9.0026ZM8.0026 11.1693C8.27874 11.1693 8.5026 11.3931 8.5026 11.6693V13.1693H7.5026V11.6693C7.5026 11.3931 7.72646 11.1693 8.0026 11.1693Z" fill="#EE2D28"/>
</svg>
