<svg width="18" height="19" viewBox="0 0 18 19" fill="none" xmlns="http://www.w3.org/2000/svg">
<path d="M5.8125 2.375C5.8125 2.06434 5.56066 1.8125 5.25 1.8125C4.93934 1.8125 4.6875 2.06434 4.6875 2.375V3.55944C3.608 3.64588 2.89933 3.85803 2.37868 4.37868C1.85803 4.89933 1.64588 5.608 1.55944 6.6875H16.4406C16.3541 5.608 16.142 4.89933 15.6213 4.37868C15.1007 3.85803 14.392 3.64588 13.3125 3.55944V2.375C13.3125 2.06434 13.0607 1.8125 12.75 1.8125C12.4393 1.8125 12.1875 2.06434 12.1875 2.375V3.50968C11.6886 3.5 11.1293 3.5 10.5 3.5H7.5C6.87072 3.5 6.31145 3.5 5.8125 3.50968V2.375Z" fill="#D6151A"/>
<path fill-rule="evenodd" clip-rule="evenodd" d="M16.5 9.5C16.5 8.87072 16.5 8.31145 16.4903 7.8125H1.50968C1.5 8.31145 1.5 8.87072 1.5 9.5V11C1.5 13.8284 1.5 15.2426 2.37868 16.1213C3.25736 17 4.67157 17 7.5 17H10.5C13.3284 17 14.7426 17 15.6213 16.1213C16.5 15.2426 16.5 13.8284 16.5 11V9.5ZM10.5 9.6875C9.77513 9.6875 9.1875 10.2751 9.1875 11V12.5C9.1875 13.2249 9.77513 13.8125 10.5 13.8125C11.2249 13.8125 11.8125 13.2249 11.8125 12.5V11C11.8125 10.2751 11.2249 9.6875 10.5 9.6875ZM10.5 10.8125C10.3964 10.8125 10.3125 10.8964 10.3125 11V12.5C10.3125 12.6036 10.3964 12.6875 10.5 12.6875C10.6036 12.6875 10.6875 12.6036 10.6875 12.5V11C10.6875 10.8964 10.6036 10.8125 10.5 10.8125ZM8.09026 9.73032C8.30045 9.81738 8.4375 10.0225 8.4375 10.25V13.25C8.4375 13.5607 8.18566 13.8125 7.875 13.8125C7.56434 13.8125 7.3125 13.5607 7.3125 13.25V11.608L7.14775 11.7727C6.92808 11.9924 6.57192 11.9924 6.35225 11.7727C6.13258 11.5531 6.13258 11.1969 6.35225 10.9773L7.47725 9.85225C7.63813 9.69138 7.88007 9.64325 8.09026 9.73032Z" fill="#D6151A"/>
</svg>
