<svg width="16" height="12" viewBox="0 0 16 12" fill="none" xmlns="http://www.w3.org/2000/svg">
<path fill-rule="evenodd" clip-rule="evenodd" d="M6.5 0H9.5C12.3284 0 13.7426 0 14.6213 0.87868C15.5 1.75736 15.5 3.17157 15.5 6C15.5 8.82843 15.5 10.2426 14.6213 11.1213C13.7426 12 12.3284 12 9.5 12H6.5C3.67157 12 2.25736 12 1.37868 11.1213C0.5 10.2426 0.5 8.82843 0.5 6C0.5 3.17157 0.5 1.75736 1.37868 0.87868C2.25736 0 3.67157 0 6.5 0ZM8.9375 3.75C8.9375 3.43934 9.18934 3.1875 9.5 3.1875H13.25C13.5607 3.1875 13.8125 3.43934 13.8125 3.75C13.8125 4.06066 13.5607 4.3125 13.25 4.3125H9.5C9.18934 4.3125 8.9375 4.06066 8.9375 3.75ZM9.6875 6C9.6875 5.68934 9.93934 5.4375 10.25 5.4375H13.25C13.5607 5.4375 13.8125 5.68934 13.8125 6C13.8125 6.31066 13.5607 6.5625 13.25 6.5625H10.25C9.93934 6.5625 9.6875 6.31066 9.6875 6ZM10.4375 8.25C10.4375 7.93934 10.6893 7.6875 11 7.6875H13.25C13.5607 7.6875 13.8125 7.93934 13.8125 8.25C13.8125 8.56066 13.5607 8.8125 13.25 8.8125H11C10.6893 8.8125 10.4375 8.56066 10.4375 8.25ZM7.25 3.75C7.25 4.57843 6.57843 5.25 5.75 5.25C4.92157 5.25 4.25 4.57843 4.25 3.75C4.25 2.92157 4.92157 2.25 5.75 2.25C6.57843 2.25 7.25 2.92157 7.25 3.75ZM5.75 9.75C8.75 9.75 8.75 9.07843 8.75 8.25C8.75 7.42157 7.40685 6.75 5.75 6.75C4.09315 6.75 2.75 7.42157 2.75 8.25C2.75 9.07843 2.75 9.75 5.75 9.75Z" fill="#D6151A"/>
</svg>
