<svg width="18" height="18" viewBox="0 0 18 18" fill="none" xmlns="http://www.w3.org/2000/svg">
<path d="M5.25 3.75C3.17893 3.75 1.5 5.42893 1.5 7.5C1.5 9.03774 2.42557 10.3593 3.75 10.938V12.9375H14.25L14.25 10.938C15.5744 10.3593 16.5 9.03774 16.5 7.5C16.5 5.42893 14.8211 3.75 12.75 3.75C12.5621 3.75 12.3775 3.76382 12.197 3.79049C11.7453 2.45854 10.4846 1.5 9 1.5C7.51542 1.5 6.25471 2.45854 5.80302 3.79049C5.62255 3.76382 5.43789 3.75 5.25 3.75Z" fill="#EE2D28"/>
<path d="M14.2487 14.0625H3.75127C3.75891 15.1102 3.81257 15.6839 4.18934 16.0607C4.62868 16.5 5.33579 16.5 6.75 16.5H11.25C12.6642 16.5 13.3713 16.5 13.8107 16.0607C14.1874 15.6839 14.2411 15.1102 14.2487 14.0625Z" fill="#EE2D28"/>
</svg>
