<svg width="14" height="14" viewBox="0 0 14 14" fill="none" xmlns="http://www.w3.org/2000/svg">
<path fill-rule="evenodd" clip-rule="evenodd" d="M7 0.25C3.27208 0.25 0.25 3.27208 0.25 7C0.25 10.7279 3.27208 13.75 7 13.75H10.375C10.7233 13.75 10.8974 13.75 11.0441 13.7356C12.4684 13.5953 13.5953 12.4684 13.7356 11.0441C13.75 10.8974 13.75 10.7233 13.75 10.375V7C13.75 3.27208 10.7279 0.25 7 0.25ZM3.75 6.25C3.75 5.69772 4.19772 5.25 4.75 5.25H9.25C9.80228 5.25 10.25 5.69772 10.25 6.25C10.25 6.80228 9.80228 7.25 9.25 7.25H4.75C4.19772 7.25 3.75 6.80228 3.75 6.25ZM6 9.25C6 8.69772 6.44772 8.25 7 8.25H9.25C9.80228 8.25 10.25 8.69772 10.25 9.25C10.25 9.80228 9.80228 10.25 9.25 10.25H7C6.44772 10.25 6 9.80228 6 9.25Z" fill="#EE2D28"/>
</svg>
