<svg width="23" height="20" viewBox="0 0 23 20" fill="none" xmlns="http://www.w3.org/2000/svg">
<g clip-path="url(#clip0_16572_2532)">
<path d="M13.2831 19.4637C14.606 19.4637 15.8514 19.2105 17.0192 18.7042C18.187 18.1978 19.2172 17.4983 20.1097 16.6059C21.0022 15.7133 21.7016 14.6832 22.208 13.5154C22.7143 12.3475 22.9675 11.1021 22.9675 9.77923C22.9675 8.45631 22.7128 7.21093 22.2032 6.04309C21.6937 4.87526 20.9927 3.84509 20.1002 2.9526C19.2077 2.06011 18.1776 1.36068 17.0097 0.854294C15.8419 0.347916 14.5965 0.0947266 13.2735 0.0947266C12.0392 0.0947266 10.8714 0.316267 9.77004 0.759349C8.66869 1.20243 7.68284 1.81641 6.81251 2.6013C5.94216 3.38619 5.23323 4.30084 4.68571 5.34524C4.13819 6.38965 3.79796 7.51318 3.66504 8.71582C3.89291 8.67151 4.16034 8.64145 4.46734 8.62563C4.77433 8.6098 5.05442 8.61771 5.3076 8.64936C5.44053 7.66825 5.73486 6.75519 6.19061 5.91017C6.64634 5.06515 7.23184 4.32932 7.94711 3.70267C8.66236 3.07603 9.47256 2.58706 10.3777 2.23575C11.2829 1.88446 12.2481 1.70881 13.2735 1.70881C14.394 1.70881 15.4415 1.91611 16.4163 2.3307C17.3911 2.7453 18.2488 3.32289 18.9893 4.06347C19.7299 4.80405 20.3091 5.66173 20.7269 6.6365C21.1446 7.61129 21.3535 8.65886 21.3535 9.77923C21.3535 10.8236 21.1699 11.8079 20.8028 12.732C20.4357 13.6562 19.9261 14.4727 19.2741 15.1816C18.964 14.8145 18.5209 14.4648 17.9449 14.1325C17.3689 13.8001 16.6853 13.5296 15.8941 13.3207C15.1029 13.1118 14.2294 13.0074 13.2735 13.0074C12.8178 13.0074 12.3811 13.0343 11.9633 13.0881C11.5456 13.1419 11.15 13.2131 10.7765 13.3017C10.8905 13.7575 10.9474 14.2354 10.9474 14.7354C10.9474 15.4759 10.8193 16.1817 10.5629 16.8527C10.3066 17.5236 9.9505 18.1281 9.49472 18.6661C10.0771 18.9193 10.6879 19.1156 11.3272 19.2548C11.9665 19.3941 12.6184 19.4637 13.2831 19.4637ZM13.2735 11.3933C13.8812 11.3996 14.4303 11.2461 14.9209 10.9328C15.4114 10.6195 15.8023 10.1922 16.0934 9.65104C16.3847 9.10985 16.5303 8.49745 16.5303 7.81384C16.5303 7.17453 16.3847 6.58903 16.0934 6.05734C15.8023 5.52564 15.4114 5.10155 14.9209 4.78506C14.4303 4.46857 13.8812 4.31033 13.2735 4.31033C12.6659 4.31033 12.1152 4.46857 11.6215 4.78506C11.1278 5.10155 10.7354 5.52564 10.4442 6.05734C10.153 6.58903 10.0106 7.17453 10.0169 7.81384C10.0169 8.49112 10.1625 9.09877 10.4537 9.6368C10.7449 10.1748 11.1357 10.6005 11.6263 10.9138C12.1168 11.2272 12.6659 11.387 13.2735 11.3933Z" fill="#D6151A"/>
<path d="M4.82326 19.5684C5.47522 19.5684 6.09237 19.4418 6.6747 19.1886C7.25704 18.9354 7.77133 18.5873 8.21758 18.1442C8.66382 17.7011 9.01354 17.1884 9.26673 16.6061C9.51992 16.0237 9.64652 15.4034 9.64652 14.7451C9.64652 14.0805 9.52151 13.457 9.27148 12.8747C9.02145 12.2924 8.6749 11.7797 8.23182 11.3366C7.78874 10.8935 7.27603 10.5469 6.6937 10.2969C6.11136 10.0469 5.48788 9.92188 4.82326 9.92188C4.16496 9.92188 3.54465 10.0469 2.96232 10.2969C2.37998 10.5469 1.86727 10.8951 1.42419 11.3413C0.981108 11.7875 0.632973 12.3003 0.379784 12.8795C0.126595 13.4586 0 14.0805 0 14.7451C0 15.4097 0.126595 16.0332 0.379784 16.6155C0.632973 17.1979 0.981108 17.7106 1.42419 18.1537C1.86727 18.5968 2.37998 18.9433 2.96232 19.1933C3.54465 19.4434 4.16496 19.5684 4.82326 19.5684Z" fill="#D6151A"/>
<path d="M3.4558 16.9862C3.33553 17.1128 3.19311 17.1698 3.02854 17.1572C2.86397 17.1445 2.72472 17.078 2.61078 16.9577C2.49052 16.8438 2.42405 16.7045 2.41139 16.54C2.39874 16.3754 2.4557 16.2298 2.5823 16.1032L3.96851 14.717L2.69623 13.4258C2.5823 13.3118 2.52533 13.1741 2.52533 13.0128C2.52533 12.8514 2.5823 12.7169 2.69623 12.6093C2.81017 12.5016 2.94467 12.4478 3.09975 12.4478C3.25483 12.4478 3.38934 12.5016 3.50328 12.6093L4.79454 13.891L6.19025 12.4953C6.31051 12.375 6.45293 12.3212 6.6175 12.3338C6.78208 12.3465 6.92133 12.4099 7.03527 12.5238C7.15553 12.644 7.222 12.7864 7.23465 12.951C7.24731 13.1156 7.19034 13.258 7.06374 13.3783L5.67753 14.774L6.9593 16.0558C7.06691 16.1697 7.12072 16.3074 7.12072 16.4688C7.12072 16.6302 7.06691 16.7647 6.9593 16.8723C6.84537 16.9799 6.70928 17.0353 6.55104 17.0384C6.3928 17.0416 6.25671 16.9862 6.14277 16.8723L4.8515 15.5906L3.4558 16.9862Z" fill="white"/>
</g>
<defs>
<clipPath id="clip0_16572_2532">
<rect width="22.9674" height="19.5684" fill="white"/>
</clipPath>
</defs>
</svg>
