<svg width="18" height="18" viewBox="0 0 18 18" fill="none" xmlns="http://www.w3.org/2000/svg">
<path d="M4.5 4.25V9.75H7.63197C7.93267 9.75 8.08302 9.75 8.20385 9.82467C8.32467 9.89935 8.39191 10.0338 8.52639 10.3028L8.72361 10.6972C8.85809 10.9662 8.92533 11.1007 9.04615 11.1753C9.16698 11.25 9.31733 11.25 9.61803 11.25H13C13.2357 11.25 13.3536 11.25 13.4268 11.1768C13.5 11.1036 13.5 10.9857 13.5 10.75V5.75C13.5 5.5143 13.5 5.39645 13.4268 5.32322C13.3536 5.25 13.2357 5.25 13 5.25H9.61803C9.31733 5.25 9.16698 5.25 9.04615 5.17533C8.92533 5.10065 8.85809 4.96617 8.72361 4.69721L8.52639 4.30279C8.39191 4.03383 8.32467 3.89935 8.20385 3.82467C8.08302 3.75 7.93267 3.75 7.63197 3.75H5C4.7643 3.75 4.64645 3.75 4.57322 3.82322C4.5 3.89645 4.5 4.0143 4.5 4.25Z" fill="#EE2D28"/>
<path d="M4.5 9.75V4.25C4.5 4.0143 4.5 3.89645 4.57322 3.82322C4.64645 3.75 4.7643 3.75 5 3.75H7.63197C7.93267 3.75 8.08302 3.75 8.20385 3.82467C8.32467 3.89935 8.39191 4.03383 8.52639 4.30279L8.72361 4.69721C8.85809 4.96617 8.92533 5.10065 9.04615 5.17533C9.16698 5.25 9.31733 5.25 9.61803 5.25H13C13.2357 5.25 13.3536 5.25 13.4268 5.32322C13.5 5.39645 13.5 5.5143 13.5 5.75V10.75C13.5 10.9857 13.5 11.1036 13.4268 11.1768C13.3536 11.25 13.2357 11.25 13 11.25H9.61803C9.31733 11.25 9.16698 11.25 9.04615 11.1753C8.92533 11.1007 8.85809 10.9662 8.72361 10.6972L8.52639 10.3028C8.39191 10.0338 8.32467 9.89935 8.20385 9.82467C8.08302 9.75 7.93267 9.75 7.63197 9.75H4.5ZM4.5 9.75V14.25" stroke="#EE2D28" stroke-width="2" stroke-linecap="round"/>
</svg>
