<svg width="33" height="27" viewBox="0 0 33 27" fill="none" xmlns="http://www.w3.org/2000/svg">
<path d="M1.43672 0.586027C1.15153 0.584959 0.877297 0.697111 0.674652 0.898183C0.47198 1.09926 0.357423 1.37269 0.356357 1.65813V7.78963C0.287464 8.00432 0.287464 8.23503 0.356357 8.44972V21.0347C0.357425 21.3185 0.470913 21.5906 0.671719 21.7914C0.872525 21.9922 1.14436 22.1054 1.42846 22.1068H19.733C19.733 23.0932 20.3403 23.8513 20.9817 24.3642C21.6228 24.8772 22.3724 25.2387 23.1024 25.5308C24.5628 26.1148 25.978 26.3885 25.978 26.3885C26.1169 26.416 26.2597 26.416 26.3986 26.3885C26.3986 26.3885 27.8224 26.1148 29.2825 25.5308C30.0126 25.2387 30.7624 24.8771 31.4035 24.3642C32.0447 23.8513 32.6522 23.0931 32.6522 22.1068V15.6471C32.65 15.3026 32.4831 14.9801 32.2033 14.779C31.9234 14.5782 31.5646 14.5234 31.2374 14.6319C31.2374 14.6319 30.9349 14.7195 30.4914 14.7811V8.19731C30.494 8.15192 30.494 8.10626 30.4914 8.06086V1.65805C30.49 1.37393 30.3768 1.10183 30.176 0.901034C29.9752 0.700242 29.7031 0.587004 29.4193 0.585938L1.43672 0.586027ZM2.50887 2.73853H28.3391V7.0436H2.50887V2.73853ZM2.50887 9.19794H28.3391V14.3775C27.8665 14.2275 27.3733 14.2291 26.956 13.8122C26.9306 13.7869 26.9039 13.7631 26.8761 13.7407C26.6793 13.5783 26.4312 13.4913 26.176 13.4947C26.1047 13.4961 26.0334 13.5046 25.9637 13.5198C25.929 13.5273 25.8945 13.5364 25.8606 13.5473C25.8264 13.5588 25.7928 13.5722 25.7599 13.5871C25.7442 13.5946 25.7287 13.6023 25.7135 13.6104C25.6972 13.6176 25.6812 13.6253 25.6651 13.6333C25.6646 13.6341 25.6638 13.6349 25.6633 13.6355C25.6526 13.6416 25.6419 13.648 25.6315 13.6544C25.6115 13.6664 25.592 13.679 25.5728 13.6923C25.5607 13.7019 25.5487 13.7116 25.537 13.7217C25.4993 13.7495 25.4635 13.7797 25.4299 13.8122C25.2243 14.0178 25.0032 14.1861 24.7741 14.3209C24.545 14.4552 24.3062 14.5572 24.0678 14.6341C23.8291 14.7108 23.5871 14.7618 23.3529 14.7938C23.1196 14.8253 22.8913 14.8379 22.676 14.8379H22.6739H22.672C21.8111 14.8363 21.1564 14.632 21.1564 14.632C20.9508 14.5623 20.7291 14.5562 20.5203 14.6146C20.3112 14.6731 20.1248 14.7936 19.9854 14.9599C19.9833 14.9626 19.9812 14.9655 19.9793 14.9682C19.8661 15.1054 19.7889 15.2689 19.7542 15.4432C19.7537 15.4454 19.7529 15.4475 19.7521 15.4496C19.7465 15.4817 19.7422 15.514 19.7395 15.5463C19.7358 15.5797 19.7336 15.6136 19.7334 15.6472V19.9544H2.50885L2.50887 9.19794ZM11.2411 11.3465C11.201 11.3457 11.161 11.347 11.1212 11.3505H4.66363C4.62652 11.3486 4.5894 11.3486 4.55228 11.3505C4.18912 11.3961 3.87403 11.6231 3.71598 11.9529C3.55763 12.2829 3.57766 12.6707 3.76938 12.9823C3.96111 13.2939 4.29783 13.487 4.66366 13.4948H11.1212C11.4115 13.5201 11.6996 13.4269 11.9199 13.236C12.1402 13.0453 12.2738 12.7732 12.2898 12.4825C12.3061 12.1914 12.2038 11.9065 12.0059 11.6923C11.8083 11.4781 11.5322 11.3534 11.2411 11.3465ZM4.66363 15.6472C4.27884 15.6472 3.92316 15.8526 3.73066 16.1858C3.53813 16.5191 3.53813 16.9298 3.73066 17.263C3.92319 17.5966 4.27887 17.8019 4.66363 17.8019H6.81613C7.20092 17.8019 7.5566 17.5966 7.7491 17.263C7.94162 16.9298 7.94162 16.5191 7.7491 16.1858C7.55657 15.8526 7.20089 15.6472 6.81613 15.6472H4.66363ZM26.1763 15.6515C27.2401 16.3965 28.4028 16.9343 29.3716 16.9757C29.5006 16.9805 29.6295 16.9618 29.7521 16.921C30.0114 16.9234 30.2683 16.9162 30.5003 16.879V22.107C30.5003 22.1964 30.4309 22.3844 30.0632 22.6787C29.6952 22.9729 29.0976 23.2838 28.4824 23.5299C27.3571 23.9799 26.3835 24.1812 26.1931 24.2215C26.0081 24.1823 25.0345 23.9812 23.9063 23.5299C23.2911 23.2837 22.6911 22.9729 22.3234 22.6787C21.9554 22.3844 21.8881 22.1964 21.8881 22.107V16.879C23.0235 17.0609 24.5026 16.8214 26.1763 15.6515ZM28.3227 17.2617C27.9678 17.2713 27.6407 17.4553 27.4482 17.7536L26.027 19.8828L24.8037 18.6679C24.604 18.4588 24.3284 18.3389 24.0392 18.3352C23.75 18.3314 23.4715 18.4441 23.2664 18.6481C23.0613 18.8521 22.9468 19.1301 22.9489 19.4193C22.951 19.7085 23.0696 19.9846 23.2776 20.1857L25.4301 22.3379C25.6587 22.567 25.9783 22.681 26.3003 22.6484C26.6224 22.6159 26.9126 22.4402 27.0907 22.1699L29.2432 18.9453C29.3935 18.7255 29.4571 18.458 29.4216 18.1942C29.3861 17.9303 29.2542 17.6889 29.0512 17.5167C28.848 17.3445 28.5885 17.2537 28.3225 17.2617L28.3227 17.2617Z" fill="white"/>
</svg>
