<svg width="20" height="20" viewBox="0 0 20 20" fill="none" xmlns="http://www.w3.org/2000/svg">
<path d="M17.9667 8.11605L16.8334 6.71298C16.6167 6.44658 16.4417 5.94929 16.4417 5.59408V4.08444C16.4417 3.14314 15.7167 2.37056 14.8334 2.37056H13.4167C13.0917 2.37056 12.6167 2.18408 12.3667 1.9532L11.0501 0.745488C10.4751 0.221556 9.5334 0.221556 8.95007 0.745488L7.64173 1.96208C7.39173 2.18408 6.91673 2.37056 6.59173 2.37056H5.15006C4.26673 2.37056 3.54173 3.14314 3.54173 4.08444V5.60296C3.54173 5.94929 3.36673 6.44658 3.1584 6.71298L2.0334 8.12494C1.55007 8.73767 1.55007 9.73225 2.0334 10.345L3.1584 11.7569C3.36673 12.0233 3.54173 12.5206 3.54173 12.867V14.3855C3.54173 15.3268 4.26673 16.0994 5.15006 16.0994H6.59173C6.91673 16.0994 7.39173 16.2858 7.64173 16.5167L8.9584 17.7244C9.5334 18.2484 10.4751 18.2484 11.0584 17.7244L12.3751 16.5167C12.6251 16.2858 13.0917 16.0994 13.4251 16.0994H14.8417C15.7251 16.0994 16.4501 15.3268 16.4501 14.3855V12.8758C16.4501 12.5295 16.6251 12.0233 16.8417 11.7569L17.9751 10.3539C18.4584 9.74113 18.4584 8.72879 17.9667 8.11605ZM13.4667 7.5566L9.44173 11.8457C9.32507 11.9701 9.16673 12.0411 9.00007 12.0411C8.8334 12.0411 8.67507 11.9701 8.5584 11.8457L6.54173 9.69673C6.30007 9.43921 6.30007 9.01296 6.54173 8.75543C6.7834 8.4979 7.1834 8.4979 7.42507 8.75543L9.00007 10.4338L12.5834 6.6153C12.8251 6.35778 13.2251 6.35778 13.4667 6.6153C13.7084 6.87283 13.7084 7.29908 13.4667 7.5566Z" fill="url(#paint0_linear_15965_2590)"/>
<defs>
<linearGradient id="paint0_linear_15965_2590" x1="1.6709" y1="9.23496" x2="18.3365" y2="9.23496" gradientUnits="userSpaceOnUse">
<stop stop-color="#56C487"/>
<stop offset="1" stop-color="#49A398"/>
</linearGradient>
</defs>
</svg>
