<svg width="32" height="32" viewBox="0 0 32 32" fill="none" xmlns="http://www.w3.org/2000/svg">
<path d="M26.8792 20.572C26.6272 19.6373 26.1722 18.7699 25.5465 18.0319C24.9209 17.2938 24.1401 16.7033 23.26 16.3025C22.38 15.9017 21.4224 15.7006 20.4557 15.7135C19.489 15.7264 18.537 15.953 17.668 16.3772C18.9313 17.3772 19.8402 18.7574 20.2605 20.3141C20.3237 20.5453 20.3326 20.7881 20.2866 21.0233C20.2405 21.2586 20.1407 21.4799 19.9949 21.6701C19.8492 21.8603 19.6614 22.0141 19.4464 22.1196C19.2314 22.225 18.995 22.2792 18.7556 22.2779H25.5651C25.7729 22.2778 25.9779 22.23 26.1643 22.1382C26.3508 22.0463 26.5137 21.9129 26.6406 21.7482C26.7675 21.5834 26.855 21.3917 26.8964 21.1878C26.9377 20.9839 26.9319 20.7733 26.8792 20.572Z" fill="#F9D1D2"/>
<path d="M23.3014 12.7061C23.6547 11.1967 22.7182 9.68647 21.2097 9.33299C19.7013 8.97951 18.1921 9.91661 17.8388 11.4261C17.4856 12.9355 18.4221 14.4457 19.9305 14.7992C21.439 15.1527 22.9482 14.2156 23.3014 12.7061Z" fill="#E3BFC0"/>
<path opacity="0.3" d="M13.0037 14.7598C11.3475 14.7613 9.73777 15.3082 8.42297 16.3161C7.10818 17.3239 6.16136 18.7367 5.7286 20.3365C5.66683 20.5683 5.65913 20.8111 5.70608 21.0463C5.75304 21.2815 5.85341 21.5027 5.99942 21.6929C6.14543 21.8831 6.33319 22.0372 6.54818 22.1432C6.76317 22.2492 6.99964 22.3044 7.23932 22.3044H18.7805C19.0206 22.3057 19.2577 22.2514 19.4733 22.1458C19.689 22.0401 19.8772 21.886 20.0234 21.6954C20.1695 21.5048 20.2696 21.2829 20.3158 21.0472C20.362 20.8115 20.3531 20.5682 20.2897 20.3365C19.8567 18.7348 18.9083 17.3205 17.5912 16.3124C16.2742 15.3044 14.6619 14.7587 13.0037 14.7598Z" fill="#D6151A"/>
<path opacity="0.3" d="M16.1821 11.0836C16.4686 9.32868 15.2793 7.67362 13.5256 7.38687C11.7719 7.10013 10.1179 8.29029 9.83135 10.0452C9.5448 11.8 10.7342 13.4551 12.4879 13.7419C14.2416 14.0286 15.8955 12.8384 16.1821 11.0836Z" fill="#D6151A"/>
<g filter="url(#filter0_d_16649_2595)">
<path d="M24.2493 0H24.2292V3.45332C24.2292 4.27116 23.5576 4.9359 22.7314 4.9359C21.9051 4.9359 21.2346 4.27082 21.2346 3.45332V0H10.746V3.45332C10.746 4.27116 10.0724 4.9359 9.24816 4.9359C8.42389 4.9359 7.75037 4.27116 7.75037 3.45332V0C6.75598 0.000888974 5.80258 0.396274 5.09944 1.09936C4.3963 1.80245 4.00089 2.75579 4 3.7501V20.2479C4 20.2885 4 20.3291 4.00302 20.3664C4.03337 21.3401 4.44143 22.2638 5.14084 22.942C5.84025 23.6202 6.77612 23.9996 7.75037 24H24.2493C25.2443 23.9997 26.1984 23.6043 26.9017 22.9006C27.6051 22.197 28.0002 21.2428 28 20.2479V3.7501C27.9997 2.75554 27.6045 1.80179 26.9011 1.09856C26.1978 0.395324 25.2439 0.000177994 24.2493 0ZM26.0023 19.848C26.0016 20.4923 25.7455 21.1099 25.2899 21.5655C24.8344 22.0211 24.2167 22.2773 23.5724 22.278H8.41281C7.76856 22.2772 7.15095 22.0208 6.69539 21.5653C6.23983 21.1098 5.98351 20.4922 5.98262 19.848V6.6629H26.0023V19.848Z" fill="#D6151A"/>
</g>
<defs>
<filter id="filter0_d_16649_2595" x="0" y="0" width="32" height="32" filterUnits="userSpaceOnUse" color-interpolation-filters="sRGB">
<feFlood flood-opacity="0" result="BackgroundImageFix"/>
<feColorMatrix in="SourceAlpha" type="matrix" values="0 0 0 0 0 0 0 0 0 0 0 0 0 0 0 0 0 0 127 0" result="hardAlpha"/>
<feOffset dy="4"/>
<feGaussianBlur stdDeviation="2"/>
<feComposite in2="hardAlpha" operator="out"/>
<feColorMatrix type="matrix" values="0 0 0 0 0 0 0 0 0 0 0 0 0 0 0 0 0 0 0.25 0"/>
<feBlend mode="normal" in2="BackgroundImageFix" result="effect1_dropShadow_16649_2595"/>
<feBlend mode="normal" in="SourceGraphic" in2="effect1_dropShadow_16649_2595" result="shape"/>
</filter>
</defs>
</svg>
