<svg width="15" height="15" viewBox="0 0 15 15" fill="none" xmlns="http://www.w3.org/2000/svg">
<g clip-path="url(#clip0_15965_2291)">
<path d="M4.26074 0.0314941C3.68066 0.1604 3.22949 0.558838 3.03906 1.10962C2.94531 1.38794 2.94531 1.83911 3.03906 2.11743C3.20312 2.5979 3.56641 2.96118 4.05859 3.14282C4.30762 3.23364 4.8291 3.23364 5.07812 3.14282C5.57031 2.96118 5.93359 2.5979 6.09766 2.11743C6.19141 1.83911 6.19141 1.38794 6.09766 1.10962C5.93066 0.62915 5.56152 0.25708 5.07812 0.0871582C4.88184 0.0197754 4.44824 -0.00952148 4.26074 0.0314941Z" fill="#EE2D28"/>
<path d="M7.43945 0.0576172C7.31348 0.12207 7.21094 0.294922 7.21094 0.435547C7.21094 0.582031 7.31348 0.749023 7.44531 0.816406C7.55078 0.87207 7.61523 0.875 8.33887 0.875H9.11523V0.435547V-0.00390625H8.33301C7.60938 -0.000976562 7.53906 0.00195312 7.43945 0.0576172Z" fill="#EE2D28"/>
<path d="M9.99219 0.556641V1.11328H10.6953C11.4805 1.11328 11.5449 1.125 11.665 1.29199C11.7588 1.42383 11.7617 1.6582 11.6738 1.77539C11.5244 1.97754 11.5273 1.97754 10.7217 1.98633L9.99219 1.99512V2.54883V3.10547H11.0146C12.0254 3.10547 12.0342 3.10547 12.1338 3.17285C12.4092 3.35742 12.3916 3.73828 12.0986 3.91113C12.0049 3.9668 11.9375 3.96973 10.9971 3.97852L9.99219 3.9873V4.52637V5.06543L10.7217 5.07422C11.5273 5.08301 11.5244 5.08301 11.6738 5.28516C11.7617 5.40234 11.7588 5.63672 11.665 5.76855C11.5449 5.93555 11.4805 5.94727 10.6953 5.94727H9.99219V6.50391V7.06055H10.9883C11.9316 7.06055 11.9932 7.06348 12.1016 7.11914C12.2334 7.18652 12.3359 7.35352 12.3359 7.5C12.3359 7.64648 12.2334 7.81348 12.1016 7.88086C11.9932 7.93652 11.9316 7.93945 10.9883 7.93945H9.99219V8.49609V9.05273H10.6953C11.4805 9.05273 11.5449 9.06445 11.665 9.23145C11.7588 9.36328 11.7617 9.59766 11.6738 9.71484C11.5244 9.91699 11.5273 9.91699 10.7217 9.92578L9.99219 9.93457V10.4883V11.0449H11.0146C12.0254 11.0449 12.0342 11.0449 12.1338 11.1123C12.4092 11.2969 12.3916 11.6777 12.0986 11.8506C12.0049 11.9062 11.9375 11.9092 10.9971 11.918L9.99219 11.9268V12.4658V13.0049L10.7217 13.0137C11.5273 13.0225 11.5244 13.0225 11.6738 13.2246C11.7617 13.3418 11.7588 13.5762 11.665 13.708C11.5449 13.875 11.4805 13.8867 10.6953 13.8867H9.99219V14.2676C9.99219 14.7217 10.0332 14.8418 10.2266 14.9414C10.3379 14.9971 10.3965 15 12.1895 15C13.9824 15 14.041 14.9971 14.1523 14.9414C14.2285 14.9033 14.29 14.8418 14.3281 14.7656C14.3867 14.6514 14.3867 14.6104 14.3867 7.5C14.3867 0.389648 14.3867 0.348633 14.3281 0.234375C14.29 0.158203 14.2285 0.0966797 14.1523 0.0585938C14.041 0.00292969 13.9854 0 12.0137 0H9.99219V0.556641Z" fill="#EE2D28"/>
<path d="M2.375 3.26673C1.66309 3.41908 1.0625 3.91126 0.790039 4.56751C0.623047 4.96595 0.617188 5.03919 0.617188 7.04896V8.8888L0.6875 9.03822C0.831055 9.34876 1.14453 9.48939 1.48145 9.39857C1.63379 9.35755 1.85059 9.1349 1.90039 8.97376C1.92676 8.88587 1.93555 8.46986 1.93555 7.42103C1.93555 6.05287 1.93848 5.98841 1.99414 5.87123C2.06152 5.73353 2.22852 5.6222 2.37207 5.6222C2.52148 5.6222 2.68848 5.72474 2.75586 5.85658C2.81445 5.97083 2.81445 6.02064 2.81445 10.213V14.4552L2.88477 14.6046C3.02832 14.9152 3.3418 15.0558 3.67871 14.965C3.83105 14.924 4.04785 14.7013 4.09766 14.5402C4.12402 14.4493 4.13281 13.8839 4.13281 12.255C4.13281 10.1544 4.13574 10.09 4.19141 9.97279C4.25879 9.83509 4.42578 9.72376 4.56934 9.72376C4.71875 9.72376 4.88574 9.8263 4.95312 9.95814C5.01172 10.0695 5.01172 10.1251 5.01172 12.2638V14.4552L5.08203 14.6046C5.22559 14.9152 5.53906 15.0558 5.87598 14.965C6.02832 14.924 6.24512 14.7013 6.29492 14.5402C6.32129 14.4464 6.33008 13.4562 6.33008 10.2042C6.33008 6.05287 6.33008 5.99134 6.38867 5.87123C6.45605 5.73353 6.62305 5.6222 6.7666 5.6222C6.91602 5.6222 7.08301 5.72474 7.15039 5.85658C7.20605 5.96791 7.20898 6.0265 7.20898 7.42982V8.8888L7.2793 9.03822C7.42285 9.34876 7.73633 9.48939 8.07324 9.39857C8.23145 9.35462 8.44531 9.13197 8.49512 8.95912C8.52148 8.86244 8.52734 8.37611 8.51855 6.92591C8.50977 5.21498 8.50391 5.00404 8.45703 4.84876C8.20801 4.01087 7.57227 3.42494 6.73438 3.26087L6.48242 3.21107L6.3125 3.38099C6.00781 3.67982 5.68262 3.87025 5.25488 4.00208C5.02637 4.06947 4.9502 4.07826 4.57227 4.07826C4.19434 4.07826 4.11816 4.06947 3.88965 4.00208C3.46191 3.87025 3.13672 3.67982 2.83789 3.38392C2.74414 3.2931 2.64453 3.21986 2.61816 3.22279C2.58887 3.22279 2.48047 3.2433 2.375 3.26673Z" fill="#EE2D28"/>
</g>
<defs>
<clipPath id="clip0_15965_2291">
<rect width="15" height="15" fill="white"/>
</clipPath>
</defs>
</svg>
