<?xml version="1.0" encoding="UTF-8"?>
<svg xmlns="http://www.w3.org/2000/svg" xmlns:xlink="http://www.w3.org/1999/xlink" viewBox="0 0 59.37 66.93">
  <defs>
    <style>
      .cls-1 {
        fill: #fff;
      }

      .cls-2 {
        isolation: isolate;
      }

      .cls-3 {
        fill: url(#Degradado_sin_nombre_3);
      }

      .cls-4 {
        fill: url(#radial-gradient);
        mix-blend-mode: multiply;
        opacity: .8;
      }
    </style>
    <radialGradient id="radial-gradient" cx="29.68" cy="37.24" fx="29.68" fy="37.24" r="29.68" gradientUnits="userSpaceOnUse">
      <stop offset="0" stop-color="#000057"/>
      <stop offset=".39" stop-color="#7474a4" stop-opacity=".54"/>
      <stop offset=".79" stop-color="#d8d8e5" stop-opacity=".15"/>
      <stop offset="1" stop-color="#fff" stop-opacity="0"/>
    </radialGradient>
    <linearGradient id="Degradado_sin_nombre_3" data-name="Degradado sin nombre 3" x1="12.86" y1="6.98" x2="46.56" y2="40.68" gradientUnits="userSpaceOnUse">
      <stop offset="0" stop-color="#ffe185"/>
      <stop offset=".21" stop-color="#ffbb36"/>
      <stop offset=".38" stop-color="#ff5176"/>
      <stop offset=".52" stop-color="#f63395"/>
      <stop offset=".74" stop-color="#a436d2"/>
      <stop offset="1" stop-color="#5f4eed"/>
    </linearGradient>
  </defs>
  <g class="cls-2">
    <g id="Layer_2" data-name="Layer 2">
      <g id="ELEMENTS">
        <g>
<!--          <circle class="cls-4" cx="29.68" cy="37.24" r="29.68"/>-->
          <g>
            <circle class="cls-3" cx="29.71" cy="23.83" r="23.83"/>
            <g>
              <path class="cls-1" d="m36.28,15.86c-.8,0-1.45.65-1.45,1.45s.65,1.45,1.45,1.45,1.45-.65,1.45-1.45-.65-1.45-1.45-1.45Z"/>
              <path class="cls-1" d="m29.81,17.72c-3.37,0-6.11,2.74-6.11,6.11s2.74,6.11,6.11,6.11,6.11-2.74,6.11-6.11-2.74-6.11-6.11-6.11Zm0,10.02c-2.16,0-3.91-1.76-3.91-3.91s1.76-3.91,3.91-3.91,3.91,1.76,3.91,3.91-1.76,3.91-3.91,3.91Z"/>
              <path class="cls-1" d="m34.66,36.23h-9.9c-4.11,0-7.45-3.34-7.45-7.45v-9.9c0-4.11,3.34-7.45,7.45-7.45h9.9c4.11,0,7.45,3.34,7.45,7.45v9.9c0,4.11-3.34,7.45-7.45,7.45Zm-9.9-22.47c-2.82,0-5.12,2.3-5.12,5.12v9.9c0,2.82,2.3,5.12,5.12,5.12h9.9c2.82,0,5.12-2.3,5.12-5.12v-9.9c0-2.82-2.3-5.12-5.12-5.12h-9.9Z"/>
            </g>
          </g>
        </g>
      </g>
    </g>
  </g>
</svg>