<svg width="35" height="27" viewBox="0 0 35 27" fill="none" xmlns="http://www.w3.org/2000/svg">
<path d="M3.88889 0.375C1.74392 0.375 0 2.33691 0 4.75V22.25C0 24.6631 1.74392 26.625 3.88889 26.625H31.1111C33.2561 26.625 35 24.6631 35 22.25V4.75C35 2.33691 33.2561 0.375 31.1111 0.375H3.88889ZM16.5278 9.125H30.1389C30.6736 9.125 31.1111 9.61719 31.1111 10.2187C31.1111 10.8203 30.6736 11.3125 30.1389 11.3125H16.5278C15.9931 11.3125 15.5556 10.8203 15.5556 10.2187C15.5556 9.61719 15.9931 9.125 16.5278 9.125ZM15.5556 16.7812C15.5556 16.1797 15.9931 15.6875 16.5278 15.6875H30.1389C30.6736 15.6875 31.1111 16.1797 31.1111 16.7812C31.1111 17.3828 30.6736 17.875 30.1389 17.875H16.5278C15.9931 17.875 15.5556 17.3828 15.5556 16.7812ZM9.96528 6.39062V7.34082C10.421 7.42285 10.8524 7.53906 11.2474 7.66211C11.8976 7.85352 12.2804 8.60547 12.1102 9.33691C11.9401 10.0684 11.2717 10.499 10.6215 10.3076C9.95312 10.1094 9.30903 9.96582 8.72569 9.95215C8.24566 9.94531 7.75347 10.0752 7.41927 10.2939C7.1276 10.4854 7.04253 10.6768 7.04253 10.9297C7.04253 11.0527 7.04861 11.1689 7.36458 11.3877C7.7474 11.6475 8.30642 11.8457 9.0842 12.1055L9.12674 12.1191C9.80729 12.3516 10.6823 12.6455 11.3811 13.1445C12.1649 13.6982 12.8576 14.6006 12.8759 15.9883C12.8941 17.417 12.2378 18.4561 11.3689 19.0645C10.9314 19.3721 10.4453 19.5635 9.9592 19.6797V20.623C9.9592 21.375 9.41233 21.9902 8.74392 21.9902C8.07552 21.9902 7.52865 21.375 7.52865 20.623V19.625C6.90278 19.4746 6.31337 19.249 5.8151 19.0508C5.6875 19.0029 5.56597 18.9551 5.44444 18.9072C4.80642 18.668 4.46615 17.8955 4.67882 17.1777C4.89149 16.46 5.57812 16.0771 6.21615 16.3164C6.36806 16.3711 6.51389 16.4326 6.65365 16.4805C7.48003 16.7949 8.11198 17.0342 8.78646 17.0615C9.30903 17.082 9.78906 16.9521 10.0868 16.7402C10.3359 16.5693 10.4514 16.3643 10.4453 16.0225C10.4453 15.8242 10.3967 15.6807 10.0868 15.4619C9.70399 15.1885 9.15104 14.9902 8.38542 14.7305L8.28212 14.6963C7.61979 14.4707 6.78733 14.1904 6.11892 13.7393C5.34722 13.2129 4.62413 12.3379 4.61806 10.957C4.61198 9.51465 5.33507 8.5166 6.18576 7.95605C6.60503 7.67578 7.06684 7.49121 7.53472 7.375V6.41797C7.53472 5.66601 8.0816 5.05078 8.75 5.05078C9.4184 5.05078 9.96528 5.66601 9.96528 6.41797V6.39062Z" fill="white"/>
</svg>
