<svg width="18" height="19" viewBox="0 0 18 19" fill="none" xmlns="http://www.w3.org/2000/svg">
<g clip-path="url(#clip0_15965_2638)">
<path d="M8.76009 0.559531C8.69681 0.591171 8.60892 0.664999 8.56673 0.724765C8.4929 0.826718 8.48939 0.875937 8.47884 1.55445C8.47181 2.18727 8.47884 2.28922 8.53158 2.39469C8.61947 2.56344 8.75306 2.65133 8.95345 2.66891C9.17494 2.69 9.34017 2.59859 9.44564 2.3982C9.52298 2.25758 9.5265 2.20484 9.5265 1.59664C9.5265 1.01656 9.51947 0.928671 9.45619 0.798593C9.32962 0.538437 9.01673 0.432968 8.76009 0.559531Z" fill="#D6151A"/>
<path d="M3.18193 2.787C3.03778 2.82919 2.862 3.02958 2.83036 3.18778C2.78466 3.43739 2.87255 3.56395 3.56513 4.2495C3.97294 4.65731 4.24013 4.89637 4.30341 4.91044C4.77099 5.02645 5.14364 4.59755 4.94325 4.17567C4.86239 4.01044 3.70224 2.86786 3.54755 2.80106C3.40341 2.7413 3.34364 2.7413 3.18193 2.787Z" fill="#D6151A"/>
<path d="M14.4343 2.8187C14.3464 2.86089 14.0581 3.12456 13.6714 3.51128C13.014 4.17925 12.9542 4.27066 13.0069 4.51675C13.0491 4.69605 13.1019 4.77691 13.2355 4.85776C13.3655 4.93862 13.58 4.95269 13.7382 4.89292C13.8472 4.85073 14.93 3.79253 15.0706 3.58862C15.2534 3.32847 15.162 2.97691 14.8737 2.82925C14.6874 2.73433 14.6171 2.73433 14.4343 2.8187Z" fill="#D6151A"/>
<path d="M7.17124 3.65418C7.05522 3.71395 6.94624 3.91786 5.50132 6.80418L3.95444 9.88739L3.9439 11.9722L3.93687 14.0534L3.27241 14.7214C2.90679 15.087 2.59038 15.428 2.56577 15.4737C2.50601 15.5897 2.50952 15.8288 2.57632 15.9518C2.60444 16.0116 3.17397 16.5987 3.83843 17.2597C4.90015 18.3143 5.06187 18.462 5.17788 18.4866C5.46265 18.5358 5.48726 18.5182 6.82319 17.1753C8.05015 15.9413 8.08179 15.9097 8.2189 15.6179C8.47202 15.0905 8.47202 15.0729 8.47202 12.4397C8.47202 9.78895 8.49311 9.96473 8.19429 10.0104C7.84272 10.0632 7.5228 10.2847 7.37515 10.5835C7.2978 10.7417 7.29429 10.7874 7.27671 11.8913C7.25913 12.9952 7.25561 13.0374 7.18179 13.1604C6.9603 13.5155 6.4189 13.4733 6.25718 13.0866C6.22905 13.0198 6.22202 12.6366 6.22905 11.8175C6.2396 10.7979 6.25015 10.6116 6.3064 10.3972C6.3521 10.2389 6.71421 9.47254 7.30483 8.28778C7.81811 7.26122 8.27163 6.31903 8.31733 6.18543C8.54937 5.51043 8.50015 4.83543 8.18726 4.38543C8.0396 4.17098 7.48062 3.6366 7.38218 3.612C7.32944 3.60145 7.24507 3.61903 7.17124 3.65418Z" fill="#D6151A"/>
<path d="M10.5289 3.64648C10.3848 3.70977 9.84687 4.28281 9.73086 4.49727C9.46719 4.98594 9.46367 5.67148 9.72383 6.32891C9.77656 6.45898 10.2195 7.36953 10.7082 8.35039C11.2109 9.34883 11.6328 10.2418 11.6785 10.3895C11.7488 10.6285 11.7559 10.7305 11.7664 11.8238C11.777 12.8996 11.7734 13.0121 11.7172 13.1246C11.5238 13.5008 10.9859 13.5008 10.7891 13.1246C10.7293 13.0121 10.7223 12.9066 10.7223 11.9398C10.7223 10.966 10.7152 10.8605 10.652 10.6918C10.5219 10.3402 10.2477 10.1082 9.87852 10.0273C9.74492 9.99922 9.67109 9.99922 9.60781 10.0273L9.52344 10.066L9.53398 12.5691L9.54453 15.0758L9.62539 15.3043C9.80469 15.807 9.9207 15.9512 11.1582 17.1957C11.798 17.8426 12.3816 18.398 12.452 18.4367C12.6172 18.5211 12.7648 18.5211 12.9301 18.4367C13.0988 18.3488 15.3805 16.0566 15.4297 15.9266C15.4824 15.7859 15.4789 15.5996 15.4191 15.4871C15.391 15.4344 15.0676 15.0934 14.6984 14.7242L14.027 14.0563V11.975V9.89023L12.4801 6.79297C11.007 3.84688 10.9262 3.6957 10.8102 3.64648C10.666 3.58672 10.6625 3.58672 10.5289 3.64648Z" fill="#D6151A"/>
<path d="M1.41366 7.91133C1.03397 8.09766 1.041 8.64961 1.42421 8.83594C1.55429 8.89922 1.64218 8.90625 2.21874 8.90625C2.82343 8.90625 2.87968 8.89922 3.02382 8.82539C3.22421 8.72344 3.31561 8.56172 3.29452 8.3332C3.27694 8.13281 3.18905 7.99922 3.0203 7.91484C2.84804 7.82695 1.58944 7.82344 1.41366 7.91133Z" fill="#D6151A"/>
<path d="M14.9774 7.91484C14.6013 8.10117 14.6013 8.64258 14.9774 8.83945C15.0829 8.89922 15.1849 8.90625 15.7614 8.90625C16.4892 8.90625 16.5876 8.88516 16.7423 8.70234C16.9462 8.45625 16.8794 8.08711 16.5981 7.92891C16.4716 7.85508 16.4153 7.85156 15.7825 7.85156C15.2024 7.85156 15.0829 7.86211 14.9774 7.91484Z" fill="#D6151A"/>
</g>
<defs>
<clipPath id="clip0_15965_2638">
<rect width="18" height="18" fill="white" transform="translate(0 0.5)"/>
</clipPath>
</defs>
</svg>
