<svg width="18" height="18" viewBox="0 0 18 18" fill="none" xmlns="http://www.w3.org/2000/svg">
<path d="M2.26954 2.28923C1.70704 2.40173 1.20079 2.78844 0.954692 3.29118C0.754301 3.70602 0.757817 3.64274 0.757817 6.38493C0.757817 8.74391 0.761332 8.93024 0.821098 9.12712C0.923051 9.45407 1.07774 9.71774 1.30625 9.94274C1.67539 10.3084 2.0586 10.4701 2.64922 10.5052L2.99024 10.5263V11.1451C2.99024 11.4861 3.00782 11.8236 3.02539 11.8939C3.09922 12.1611 3.39805 12.3404 3.68633 12.2877C3.79883 12.2701 3.93946 12.1435 4.69532 11.3912L5.57422 10.5193L5.78516 10.5088L5.9961 10.4982L6.01719 9.12712C6.02774 8.20251 6.04883 7.71735 6.07696 7.63298C6.10157 7.56618 6.11914 7.50641 6.11914 7.49938C6.11914 7.49587 5.88008 7.49587 5.58477 7.49938L5.05039 7.50993L4.74453 8.1779C4.49141 8.73337 4.4211 8.85993 4.32266 8.92673C4.23125 8.99001 4.17149 9.00407 4.08008 8.99001C3.91485 8.9654 3.76368 8.79665 3.76368 8.63844C3.76368 8.5611 4.06602 7.85446 4.67422 6.51501C5.17696 5.4111 5.61993 4.4443 5.66211 4.36344C5.78868 4.11384 6.09453 4.05759 6.27383 4.25095C6.30196 4.2861 6.50235 4.70094 6.7168 5.17204C6.93125 5.64313 7.11407 6.0404 7.12461 6.05446C7.13164 6.06852 7.27578 6.00876 7.44453 5.92438C7.98946 5.65016 7.98243 5.65016 9.71563 5.6361L11.252 5.62555V4.80641C11.252 4.35641 11.2344 3.89587 11.2133 3.77985C11.0867 3.08376 10.5031 2.47204 9.80352 2.3068C9.61368 2.26462 9.04414 2.25407 5.9961 2.25759C4.02383 2.2611 2.34688 2.27516 2.26954 2.28923Z" fill="#EE2D28"/>
<path d="M5.70234 6.05742C5.54414 6.40898 5.41406 6.70781 5.41406 6.72187C5.41406 6.73945 5.66016 6.75 5.95898 6.75C6.49336 6.75 6.50391 6.75 6.52148 6.66914C6.53555 6.61641 6.4582 6.40898 6.27539 6.01523C6.13125 5.69531 6.0082 5.43164 6.00117 5.42812C5.99766 5.42461 5.86406 5.70586 5.70234 6.05742Z" fill="#EE2D28"/>
<path d="M8.31867 6.40233C8.05149 6.441 7.59446 6.65897 7.38 6.85233C7.1761 7.03162 6.97571 7.33045 6.85969 7.62928L6.7718 7.85779L6.76125 10.3961C6.75071 13.2051 6.75071 13.1945 6.97219 13.6199C7.14094 13.9363 7.48899 14.2703 7.80891 14.425C7.95305 14.4918 8.1675 14.5656 8.28 14.5867C8.4136 14.6113 9.2011 14.6254 10.4421 14.6254H12.3968L13.2054 15.4375C13.6519 15.884 14.0808 16.2883 14.1652 16.3375C14.4323 16.4957 14.7874 16.4008 14.9386 16.1265C14.9878 16.0316 15.0019 15.898 15.0089 15.325L15.0195 14.6359L15.3956 14.6148C15.9792 14.5867 16.3448 14.432 16.7105 14.0594C16.9812 13.7816 17.1851 13.3703 17.2343 12.9906C17.2554 12.8113 17.2659 11.848 17.2589 10.3187C17.2484 8.12147 17.2413 7.91404 17.1816 7.73475C16.9741 7.09842 16.5312 6.65897 15.8948 6.44803C15.712 6.38475 15.4906 6.38123 12.1155 6.37772C10.1433 6.3742 8.43469 6.38475 8.31867 6.40233ZM12.1507 8.10037C12.337 8.18123 12.3792 8.30076 12.3792 8.77186V9.17615H13.1351C13.9507 9.17615 14.0738 9.19725 14.1863 9.35545C14.2636 9.47147 14.2566 9.67537 14.1687 9.78436C14.1019 9.87225 13.9472 9.93553 13.7538 9.95662C13.6765 9.96717 13.6624 9.99529 13.6097 10.266C13.5007 10.7969 13.2089 11.384 12.8679 11.7601C12.7554 11.8832 12.6991 11.9711 12.7167 11.9887C12.773 12.0449 13.2652 12.1574 13.571 12.1855C13.8277 12.2066 13.8734 12.2207 13.9648 12.3121C14.0421 12.393 14.0667 12.4492 14.0667 12.5547C14.0667 12.9168 13.8382 13.0012 13.1702 12.8851C12.8152 12.8219 12.5163 12.7269 12.228 12.5828L12.0206 12.4808L11.771 12.6004C11.1734 12.8816 10.3859 13.0187 10.1257 12.8816C9.99914 12.8183 9.90422 12.6215 9.93586 12.4808C9.97805 12.291 10.0976 12.2242 10.4984 12.175C10.8534 12.1328 11.1839 12.0555 11.2894 11.9887C11.328 11.964 11.3034 11.9219 11.1593 11.7672C10.9624 11.5597 10.755 11.2574 10.6495 11.0148C10.5933 10.8847 10.5898 10.8426 10.6214 10.7406C10.6777 10.5754 10.8077 10.4769 10.98 10.4769C11.1523 10.4769 11.2788 10.6 11.4616 10.9269C11.5284 11.0465 11.6761 11.2433 11.7921 11.3629L12.003 11.5844L12.2386 11.3312C12.5515 10.9937 12.7976 10.5156 12.889 10.0621L12.9136 9.94959H11.5003C9.92883 9.94959 9.90422 9.94608 9.79875 9.72108C9.72844 9.57694 9.72844 9.54881 9.79875 9.40467C9.89719 9.19725 9.99211 9.17615 10.864 9.17615H11.6409V8.74373C11.6409 8.26561 11.6691 8.18826 11.8659 8.10037C12.003 8.04061 12.0066 8.04061 12.1507 8.10037Z" fill="#EE2D28"/>
</svg>
