<svg width="12" height="14" viewBox="0 0 12 14" fill="none" xmlns="http://www.w3.org/2000/svg">
<path fill-rule="evenodd" clip-rule="evenodd" d="M5.9974 0.335938C3.05188 0.335938 0.664062 3.00433 0.664062 6.0026C0.664062 8.97739 2.36628 12.2109 5.02211 13.4522C5.64122 13.7416 6.35357 13.7416 6.97268 13.4522C9.62851 12.2109 11.3307 8.97739 11.3307 6.0026C11.3307 3.00433 8.94291 0.335938 5.9974 0.335938ZM5.9974 7.0026C6.73377 7.0026 7.33073 6.40565 7.33073 5.66927C7.33073 4.93289 6.73377 4.33594 5.9974 4.33594C5.26102 4.33594 4.66406 4.93289 4.66406 5.66927C4.66406 6.40565 5.26102 7.0026 5.9974 7.0026Z" fill="#EE2D28"/>
</svg>
