<svg width="15" height="15" viewBox="0 0 15 15" fill="none" xmlns="http://www.w3.org/2000/svg">
<rect width="15" height="15" rx="2" fill="url(#paint0_linear_15036_3057)"/>
<path d="M12.1251 10.735L11.3001 10.93C11.1151 10.975 10.9701 11.115 10.9301 11.3L10.7551 12.035C10.6601 12.435 10.1501 12.56 9.88512 12.245L8.39012 10.525C8.27012 10.385 8.33512 10.165 8.51512 10.12C9.40012 9.90499 10.1951 9.40999 10.7801 8.70499C10.8751 8.58999 11.0451 8.57499 11.1501 8.67999L12.2601 9.78999C12.6401 10.17 12.5051 10.645 12.1251 10.735Z" fill="white"/>
<path d="M2.84959 10.735L3.67459 10.93C3.85959 10.975 4.00459 11.115 4.04459 11.3L4.21959 12.035C4.31459 12.435 4.82459 12.56 5.08959 12.245L6.58459 10.525C6.70459 10.385 6.63959 10.165 6.45959 10.12C5.57459 9.90499 4.77959 9.40999 4.19459 8.70499C4.09959 8.58999 3.92959 8.57499 3.82459 8.67999L2.71459 9.78999C2.33459 10.17 2.46959 10.645 2.84959 10.735Z" fill="white"/>
<path d="M7.5 2.5C5.565 2.5 4 4.065 4 6C4 6.725 4.215 7.39 4.585 7.945C5.125 8.745 5.98 9.31 6.975 9.455C7.145 9.485 7.32 9.5 7.5 9.5C7.68 9.5 7.855 9.485 8.025 9.455C9.02 9.31 9.875 8.745 10.415 7.945C10.785 7.39 11 6.725 11 6C11 4.065 9.435 2.5 7.5 2.5ZM9.03 5.89L8.615 6.305C8.545 6.375 8.505 6.51 8.53 6.61L8.65 7.125C8.745 7.53 8.53 7.69 8.17 7.475L7.67 7.18C7.58 7.125 7.43 7.125 7.34 7.18L6.84 7.475C6.48 7.685 6.265 7.53 6.36 7.125L6.48 6.61C6.5 6.515 6.465 6.375 6.395 6.305L5.97 5.89C5.725 5.645 5.805 5.4 6.145 5.345L6.68 5.255C6.77 5.24 6.875 5.16 6.915 5.08L7.21 4.49C7.37 4.17 7.63 4.17 7.79 4.49L8.085 5.08C8.125 5.16 8.23 5.24 8.325 5.255L8.86 5.345C9.195 5.4 9.275 5.645 9.03 5.89Z" fill="white"/>
<defs>
<linearGradient id="paint0_linear_15036_3057" x1="7.5" y1="0" x2="7.5" y2="15" gradientUnits="userSpaceOnUse">
<stop stop-color="#E9A01A"/>
<stop offset="0.415" stop-color="#B77A08"/>
<stop offset="0.705" stop-color="#EAA320"/>
<stop offset="1" stop-color="#FFCC6F"/>
</linearGradient>
</defs>
</svg>
