<svg width="18" height="18" viewBox="0 0 18 18" fill="none" xmlns="http://www.w3.org/2000/svg">
<path fill-rule="evenodd" clip-rule="evenodd" d="M9.039 0.937501H8.961C8.28715 0.93748 7.72522 0.937462 7.27914 0.997436C6.8083 1.06074 6.3832 1.19999 6.04159 1.54159C5.69999 1.8832 5.56074 2.3083 5.49744 2.77914C5.45444 3.09892 5.44228 3.86361 5.43885 4.51924C3.92216 4.56878 3.01152 4.74584 2.37868 5.37868C1.5 6.25736 1.5 7.67157 1.5 10.5C1.5 13.3284 1.5 14.7426 2.37868 15.6213C3.25736 16.5 4.67157 16.5 7.49999 16.5H10.5C13.3284 16.5 14.7426 16.5 15.6213 15.6213C16.5 14.7426 16.5 13.3284 16.5 10.5C16.5 7.67157 16.5 6.25736 15.6213 5.37868C14.9885 4.74584 14.0778 4.56878 12.5612 4.51924C12.5577 3.86361 12.5456 3.09892 12.5026 2.77914C12.4393 2.3083 12.3 1.8832 11.9584 1.54159C11.6168 1.19999 11.1917 1.06074 10.7209 0.997436C10.2748 0.937462 9.71285 0.93748 9.039 0.937501ZM11.4359 4.50141C11.4325 3.86643 11.4218 3.18306 11.3876 2.92905C11.3411 2.58295 11.2607 2.43483 11.1629 2.33709C11.0652 2.23935 10.9171 2.15894 10.571 2.1124C10.2087 2.0637 9.72301 2.0625 9 2.0625C8.27699 2.0625 7.79132 2.0637 7.42905 2.1124C7.08295 2.15894 6.93483 2.23935 6.83709 2.33709C6.73935 2.43483 6.65893 2.58295 6.6124 2.92905C6.57825 3.18306 6.56746 3.86643 6.56406 4.50141C6.85762 4.5 7.16914 4.5 7.5 4.5H10.5C10.8309 4.5 11.1424 4.5 11.4359 4.50141ZM9 6.9375C9.31066 6.9375 9.5625 7.18934 9.5625 7.5V7.50767C10.3791 7.7134 11.0625 8.35725 11.0625 9.25C11.0625 9.56066 10.8107 9.8125 10.5 9.8125C10.1893 9.8125 9.9375 9.56066 9.9375 9.25C9.9375 8.96198 9.61815 8.5625 9 8.5625C8.38185 8.5625 8.0625 8.96198 8.0625 9.25C8.0625 9.53802 8.38185 9.9375 9 9.9375C10.0387 9.9375 11.0625 10.6573 11.0625 11.75C11.0625 12.6428 10.3791 13.2866 9.5625 13.4923V13.5C9.5625 13.8107 9.31066 14.0625 9 14.0625C8.68934 14.0625 8.4375 13.8107 8.4375 13.5V13.4923C7.62091 13.2866 6.9375 12.6428 6.9375 11.75C6.9375 11.4393 7.18934 11.1875 7.5 11.1875C7.81066 11.1875 8.0625 11.4393 8.0625 11.75C8.0625 12.038 8.38185 12.4375 9 12.4375C9.61815 12.4375 9.9375 12.038 9.9375 11.75C9.9375 11.462 9.61815 11.0625 9 11.0625C7.9613 11.0625 6.9375 10.3427 6.9375 9.25C6.9375 8.35725 7.62091 7.7134 8.4375 7.50767V7.5C8.4375 7.18934 8.68934 6.9375 9 6.9375Z" fill="#D6151A"/>
</svg>
