<svg width="16" height="16" viewBox="0 0 16 16" fill="none" xmlns="http://www.w3.org/2000/svg">
<path fill-rule="evenodd" clip-rule="evenodd" d="M15.32 7.66C15.32 11.8905 11.8905 15.32 7.66 15.32C3.4295 15.32 0 11.8905 0 7.66C0 3.4295 3.4295 0 7.66 0C11.8905 0 15.32 3.4295 15.32 7.66ZM10.7472 5.33877C10.9716 5.56312 10.9716 5.92688 10.7472 6.15123L6.91723 9.98123C6.69288 10.2056 6.32912 10.2056 6.10477 9.98123L4.57277 8.44923C4.34841 8.22488 4.34841 7.86112 4.57277 7.63677C4.79712 7.41241 5.16088 7.41241 5.38523 7.63677L6.511 8.76253L8.22288 7.05065L9.93477 5.33877C10.1591 5.11441 10.5229 5.11441 10.7472 5.33877Z" fill="#0A9C45"/>
</svg>
