<svg width="24" height="24" viewBox="0 0 24 24" fill="none" xmlns="http://www.w3.org/2000/svg">
<path d="M2 16.1426V4.99683C2 3.89865 2.8863 3.00655 3.9824 3.07391C4.95877 3.13392 6.11349 3.25253 7 3.48647C8.04921 3.76333 9.29611 4.35303 10.2823 4.87448C10.5893 5.03684 10.9158 5.14947 11.25 5.21296L11.25 20.3916C10.9471 20.3248 10.6515 20.217 10.3724 20.0683C9.37293 19.5355 8.08145 18.9178 7 18.6324C6.12329 18.401 4.98428 18.2825 4.01486 18.2218C2.90605 18.1525 2 17.2536 2 16.1426Z" fill="#FF7E46"/>
<path d="M12.75 20.3916C13.0529 20.3248 13.3485 20.217 13.6276 20.0683C14.6271 19.5355 15.9185 18.9178 17 18.6324C17.8767 18.401 19.0157 18.2825 19.9851 18.2218C21.094 18.1525 22 17.2536 22 16.1426V4.93222C22 3.85977 21.1538 2.97944 20.082 3.01677C18.9534 3.05608 17.5469 3.17305 16.5 3.48647C15.5924 3.75819 14.5353 4.30321 13.6738 4.80178C13.3824 4.97047 13.0708 5.09437 12.75 5.17293L12.75 20.3916Z" fill="#FF7E46"/>
</svg>
