<svg width="14" height="15" viewBox="0 0 14 15" fill="none" xmlns="http://www.w3.org/2000/svg">
<path fill-rule="evenodd" clip-rule="evenodd" d="M1.12868 0.87868C0.25 1.75736 0.25 3.17157 0.25 6V9C0.25 11.8284 0.25 13.2426 1.12868 14.1213C2.00736 15 3.42157 15 6.25 15H7.75C10.5784 15 11.9926 15 12.8713 14.1213C13.75 13.2426 13.75 11.8284 13.75 9V6C13.75 3.17157 13.75 1.75736 12.8713 0.87868C11.9926 0 10.5784 0 7.75 0H6.25C3.42157 0 2.00736 0 1.12868 0.87868ZM3.4375 4.5C3.4375 4.18934 3.68934 3.9375 4 3.9375H10C10.3107 3.9375 10.5625 4.18934 10.5625 4.5C10.5625 4.81066 10.3107 5.0625 10 5.0625H4C3.68934 5.0625 3.4375 4.81066 3.4375 4.5ZM3.4375 7.5C3.4375 7.18934 3.68934 6.9375 4 6.9375H10C10.3107 6.9375 10.5625 7.18934 10.5625 7.5C10.5625 7.81066 10.3107 8.0625 10 8.0625H4C3.68934 8.0625 3.4375 7.81066 3.4375 7.5ZM4 9.9375C3.68934 9.9375 3.4375 10.1893 3.4375 10.5C3.4375 10.8107 3.68934 11.0625 4 11.0625H7.75C8.06066 11.0625 8.3125 10.8107 8.3125 10.5C8.3125 10.1893 8.06066 9.9375 7.75 9.9375H4Z" fill="#D6151A"/>
</svg>
