<svg width="18" height="19" viewBox="0 0 18 19" fill="none" xmlns="http://www.w3.org/2000/svg">
<path d="M13.1473 6.3275C13.0948 6.32 13.0423 6.32 12.9898 6.3275C11.8273 6.29 10.9048 5.3375 10.9048 4.1675C10.9048 2.975 11.8723 2 13.0723 2C14.2648 2 15.2398 2.9675 15.2398 4.1675C15.2323 5.3375 14.3098 6.29 13.1473 6.3275Z" fill="#D6151A"/>
<path d="M15.5927 11.5253C14.7527 12.0878 13.5752 12.2978 12.4877 12.1553C12.7727 11.5403 12.9227 10.8578 12.9302 10.1378C12.9302 9.3878 12.7652 8.6753 12.4502 8.0528C13.5602 7.9028 14.7377 8.1128 15.5852 8.6753C16.7702 9.4553 16.7702 10.7378 15.5927 11.5253Z" fill="#D6151A"/>
<path d="M4.83012 6.3275C4.88262 6.32 4.93512 6.32 4.98762 6.3275C6.15012 6.29 7.07262 5.3375 7.07262 4.1675C7.07262 2.9675 6.10512 2 4.90512 2C3.71262 2 2.74512 2.9675 2.74512 4.1675C2.74512 5.3375 3.66762 6.29 4.83012 6.3275Z" fill="#D6151A"/>
<path d="M4.91234 10.1379C4.91234 10.8654 5.06984 11.5554 5.35484 12.1779C4.29734 12.2904 3.19484 12.0654 2.38484 11.5329C1.19984 10.7454 1.19984 9.46294 2.38484 8.67544C3.18734 8.13544 4.31984 7.91794 5.38484 8.03794C5.07734 8.66794 4.91234 9.38044 4.91234 10.1379Z" fill="#D6151A"/>
<path d="M9.0901 12.4025C9.0301 12.395 8.9626 12.395 8.8951 12.4025C7.5151 12.3575 6.4126 11.225 6.4126 9.83C6.4201 8.405 7.5676 7.25 9.0001 7.25C10.4251 7.25 11.5801 8.405 11.5801 9.83C11.5726 11.225 10.4776 12.3575 9.0901 12.4025Z" fill="#D6151A"/>
<path d="M6.6526 13.9555C5.5201 14.713 5.5201 15.958 6.6526 16.708C7.9426 17.5705 10.0576 17.5705 11.3476 16.708C12.4801 15.9505 12.4801 14.7055 11.3476 13.9555C10.0651 13.093 7.9501 13.093 6.6526 13.9555Z" fill="#D6151A"/>
</svg>
