<svg width="31" height="30" viewBox="0 0 31 30" fill="none" xmlns="http://www.w3.org/2000/svg">
<path d="M15.2083 0C12.1998 0 9.25889 0.879734 6.75742 2.52796C4.25594 4.17618 2.30627 6.51886 1.15497 9.25975C0.00366117 12.0006 -0.297573 15.0166 0.289357 17.9263C0.876287 20.8361 2.32502 23.5088 4.45235 25.6066C6.57969 27.7044 9.29007 29.133 12.2408 29.7118C15.1915 30.2905 18.2499 29.9935 21.0294 28.8582C23.8089 27.7229 26.1846 25.8003 27.856 23.3335C29.5275 20.8668 30.4196 17.9667 30.4196 15C30.4148 11.0232 28.8107 7.21061 25.9591 4.39858C23.1074 1.58655 19.2412 0.00469155 15.2083 0ZM22.1226 16.3636H16.5912V21.8182C16.5912 22.1798 16.4455 22.5267 16.1862 22.7824C15.9268 23.0381 15.5751 23.1818 15.2083 23.1818C14.8416 23.1818 14.4899 23.0381 14.2305 22.7824C13.9712 22.5267 13.8255 22.1798 13.8255 21.8182V16.3636H8.29413C7.92738 16.3636 7.57565 16.22 7.31631 15.9642C7.05698 15.7085 6.91129 15.3617 6.91129 15C6.91129 14.6383 7.05698 14.2915 7.31631 14.0358C7.57565 13.78 7.92738 13.6364 8.29413 13.6364H13.8255V8.18182C13.8255 7.82016 13.9712 7.47331 14.2305 7.21758C14.4899 6.96185 14.8416 6.81818 15.2083 6.81818C15.5751 6.81818 15.9268 6.96185 16.1862 7.21758C16.4455 7.47331 16.5912 7.82016 16.5912 8.18182V13.6364H22.1226C22.4893 13.6364 22.841 13.78 23.1004 14.0358C23.3597 14.2915 23.5054 14.6383 23.5054 15C23.5054 15.3617 23.3597 15.7085 23.1004 15.9642C22.841 16.22 22.4893 16.3636 22.1226 16.3636Z" fill="#D6151A"/>
</svg>
