<svg width="16" height="18" viewBox="0 0 16 18" fill="none" xmlns="http://www.w3.org/2000/svg">
<path d="M7.97586 0.516457C8.03725 0.514795 8.11742 0.534172 8.22683 0.571329C8.34065 0.609987 8.49848 0.67247 8.72019 0.766792C9.16399 0.955603 9.87217 1.27562 11.0134 1.79764C11.0959 1.83514 11.191 1.87839 11.2958 1.92605C11.8899 2.19613 12.7958 2.60802 13.4851 2.91962C13.8917 3.10064 14.2763 3.28177 14.5693 3.42762C14.7158 3.5005 14.8401 3.56493 14.9332 3.61633C14.9797 3.64198 15.0192 3.66487 15.0501 3.68425C15.0779 3.70167 15.1064 3.72085 15.1252 3.73933L15.2635 3.87209L15.294 3.90134L15.2942 3.94357L15.3109 6.46023L15.3109 6.46027C15.3276 9.13639 15.278 10.2633 15.0978 11.1638C14.6862 13.2223 13.5615 14.7449 11.568 15.9355C11.1177 16.2085 10.3185 16.5952 9.5934 16.9129C9.23018 17.072 8.88372 17.2147 8.6068 17.3177C8.46845 17.3692 8.34635 17.4112 8.24763 17.4405C8.15311 17.4686 8.06835 17.4887 8.0109 17.4887C7.95557 17.4887 7.88224 17.4746 7.79769 17.4523C7.71095 17.4294 7.6047 17.3956 7.48038 17.3517C7.23163 17.2639 6.90578 17.1338 6.51037 16.9639C4.79013 16.2278 3.52124 15.4423 2.61396 14.5026C1.70491 13.5611 1.16351 12.4696 0.890692 11.1309L0.890646 11.1306C0.721568 10.2909 0.672029 9.00229 0.68868 6.37693L0.688681 6.37688L0.705347 3.94354L0.705636 3.90133L0.736092 3.87209L0.87444 3.73927C0.893203 3.72081 0.921662 3.70165 0.949443 3.68425C0.980393 3.66487 1.01992 3.64198 1.06637 3.61633C1.15944 3.56493 1.28377 3.5005 1.43024 3.42762C1.7233 3.28178 2.10784 3.10067 2.51439 2.91966C4.0758 2.21397 6.94708 0.908846 7.45745 0.670301L7.4575 0.670277C7.54543 0.629242 7.64571 0.591484 7.73668 0.563829C7.82358 0.537411 7.91277 0.516825 7.97586 0.516457ZM7.97586 0.516457C7.97643 0.516453 7.977 0.516451 7.97757 0.516451V0.616451L7.97424 0.516506C7.97478 0.516489 7.97532 0.516472 7.97586 0.516457ZM12.6089 4.06881L12.6081 4.06846C12.2053 3.8837 11.7392 3.67156 11.3326 3.48645C10.9955 3.33303 10.6993 3.19818 10.5136 3.11287C10.1027 2.9241 9.36961 2.59086 8.89182 2.37419C8.65364 2.26618 8.42834 2.16805 8.25815 2.09777C8.17291 2.06257 8.10238 2.03472 8.05132 2.01617C8.02561 2.00683 8.0062 2.00034 7.99292 1.99648C7.99114 1.99597 7.98957 1.99553 7.98821 1.99516C7.98461 1.99601 7.9783 1.99761 7.96864 2.00056C7.94928 2.00646 7.92375 2.01544 7.89333 2.02715C7.8327 2.05046 7.75704 2.08286 7.68079 2.11826L7.68047 2.11841L7.67704 2.11999C7.39942 2.24769 7.03848 2.41373 3.74654 3.90202L3.74648 3.90204L2.09473 4.64747L2.11645 7.4711C2.13036 9.00064 2.1401 9.80055 2.18075 10.3317C2.22095 10.857 2.291 11.1159 2.42873 11.5649L2.42877 11.565C2.97649 13.3601 4.41308 14.5997 7.41518 15.8182L7.41556 15.8184L8.00037 16.0586L8.59017 15.8237C8.59023 15.8237 8.5903 15.8237 8.59036 15.8236C11.6507 14.5895 13.1368 13.2294 13.6418 11.2528L13.6419 11.2524C13.8603 10.4114 13.8998 9.78557 13.8998 7.09423V4.64786L12.6089 4.06881Z" fill="#D6151A" stroke="#D6151A" stroke-width="0.2"/>
<path d="M7.30541 4.29462C6.65541 4.51128 6.12208 4.98351 5.82208 5.60573C5.66652 5.92795 5.63875 6.05017 5.61652 6.57795L5.58319 7.18351L5.31652 7.25017C4.87764 7.36129 4.56652 7.66684 4.4443 8.10573C4.36652 8.38351 4.37208 12.0724 4.44986 12.3613C4.53319 12.6724 4.96097 13.0724 5.2943 13.1557C5.64986 13.2502 10.3499 13.2502 10.7054 13.1557C11.0387 13.0724 11.4665 12.6724 11.5499 12.3613C11.6276 12.0724 11.6332 8.38351 11.5554 8.10573C11.4332 7.66684 11.1221 7.36129 10.6832 7.25017L10.4165 7.18351L10.3832 6.60573C10.3276 5.52795 9.87764 4.82795 8.96652 4.40573C8.68875 4.27795 8.54986 4.25017 8.08319 4.23906C7.73319 4.22795 7.4443 4.25017 7.30541 4.29462ZM8.33875 5.45017C8.62208 5.53906 8.92208 5.79462 9.06652 6.0724C9.15541 6.25017 9.18319 6.41684 9.18875 6.75017L9.1943 7.19462H7.99986H6.80541L6.81097 6.75017C6.81652 6.22795 6.93875 5.92795 7.24986 5.68351C7.5943 5.40573 7.93875 5.33351 8.33875 5.45017ZM10.3887 10.1946V12.0002H7.99986H5.61097V10.1946V8.38906H7.99986H10.3887V10.1946Z" fill="#D6151A"/>
<path d="M7.59984 9.77179C7.44428 9.91068 7.4165 9.97179 7.4165 10.194C7.4165 10.4162 7.44428 10.4773 7.59984 10.6162C7.73317 10.7385 7.83317 10.7773 7.99984 10.7773C8.1665 10.7773 8.2665 10.7385 8.39984 10.6162C8.55539 10.4773 8.58317 10.4162 8.58317 10.194C8.58317 9.97179 8.55539 9.91068 8.39984 9.77179C8.2665 9.64957 8.1665 9.61068 7.99984 9.61068C7.83317 9.61068 7.73317 9.64957 7.59984 9.77179Z" fill="#D6151A"/>
</svg>
