<svg width="14" height="14" viewBox="0 0 14 14" fill="none" xmlns="http://www.w3.org/2000/svg">
<path fill-rule="evenodd" clip-rule="evenodd" d="M6.04314 0.500001H6.04321H7.96224H7.96231C8.03796 0.499991 8.09684 0.499983 8.15254 0.503357C8.8595 0.546172 9.47856 0.992367 9.74274 1.6495C9.76356 1.70129 9.78219 1.7572 9.8061 1.82898L9.80812 1.83503C9.8637 1.98462 9.99119 2.1547 10.1697 2.29059C10.1896 2.30572 10.2095 2.32 10.2295 2.33345C11.6654 2.33512 12.4149 2.36163 12.9315 2.78199C13.0375 2.86822 13.1344 2.96509 13.2206 3.07106C13.6693 3.62247 13.6693 4.43918 13.6693 6.07262C13.6693 6.4871 13.6693 6.69434 13.5688 6.856C13.5492 6.8875 13.527 6.9173 13.5025 6.9451C13.3765 7.08783 13.178 7.14738 12.781 7.26648L9.66927 8.2V7.66667C9.66927 6.93029 9.07232 6.33333 8.33594 6.33333H5.66927C4.93289 6.33333 4.33594 6.93029 4.33594 7.66667V8.2L1.22421 7.26648C0.827205 7.14738 0.628705 7.08783 0.502746 6.9451C0.47821 6.9173 0.456036 6.8875 0.436455 6.856C0.335938 6.69434 0.335938 6.4871 0.335938 6.07262C0.335938 4.43918 0.335938 3.62247 0.784592 3.07106C0.870823 2.96509 0.967688 2.86822 1.07367 2.78199C1.59029 2.36163 2.33982 2.33512 3.77576 2.33345C3.79572 2.31999 3.81568 2.3057 3.83556 2.29057C4.01412 2.15466 4.14163 1.98456 4.1972 1.83501C4.2225 1.75909 4.24143 1.70246 4.26271 1.6495C4.52689 0.992366 5.14595 0.546172 5.85291 0.503357C5.90862 0.499983 5.9675 0.499991 6.04314 0.500001ZM8.88172 2.21208C8.89784 2.25312 8.91561 2.29356 8.93488 2.33333H5.07042C5.08966 2.29363 5.1074 2.25325 5.1235 2.21228L5.12454 2.20995L5.12731 2.20335L5.13057 2.19527L5.13362 2.18729L5.13604 2.18066L5.13723 2.17732L5.14006 2.16916L5.14261 2.16163L5.14401 2.15745L5.14583 2.15189L5.14732 2.1472L5.14851 2.14335C5.1744 2.06581 5.18285 2.04164 5.19055 2.0225C5.31063 1.72381 5.59202 1.52099 5.91336 1.50153C5.93487 1.50023 5.96123 1.5 6.05682 1.5H7.94863C8.04422 1.5 8.07058 1.50023 8.09209 1.50153C8.41343 1.52099 8.69483 1.7238 8.81491 2.0225C8.82249 2.04136 8.83053 2.06465 8.85678 2.14333L8.85796 2.14714L8.85946 2.15186L8.86129 2.15742L8.86268 2.1616L8.86523 2.16911L8.86805 2.17726L8.86924 2.1806L8.87166 2.18721L8.87469 2.19514L8.87791 2.20314L8.88065 2.20966L8.88172 2.21208ZM8.33594 7.33594H5.66927C5.48518 7.33594 5.33594 7.48518 5.33594 7.66927V9.11026C5.33594 9.24656 5.41892 9.36913 5.54547 9.41975L6.01223 9.60645C6.64799 9.86076 7.35722 9.86076 7.99298 9.60645L8.45973 9.41975C8.58629 9.36913 8.66927 9.24656 8.66927 9.11026V7.66927C8.66927 7.48518 8.52003 7.33594 8.33594 7.33594ZM4.34442 9.24317L1.00781 8.24219C1.02787 10.3185 1.14917 12.2307 1.88252 12.8826C2.7612 13.6636 4.17541 13.6636 7.00384 13.6636C9.83226 13.6636 11.2465 13.6636 12.1252 12.8826C12.8585 12.2307 12.9798 10.3185 12.9999 8.2422L9.6634 9.24314C9.61258 9.73162 9.29539 10.1575 8.83243 10.3427L8.36567 10.5294C7.4915 10.8791 6.51631 10.8791 5.64214 10.5294L5.17539 10.3427C4.71244 10.1575 4.39525 9.73164 4.34442 9.24317Z" fill="#EE2D28"/>
</svg>
