<svg width="16" height="16" viewBox="0 0 16 16" fill="none" xmlns="http://www.w3.org/2000/svg">
<path fill-rule="evenodd" clip-rule="evenodd" d="M15.5 8C15.5 12.1421 12.1421 15.5 8 15.5C3.85786 15.5 0.5 12.1421 0.5 8C0.5 3.85786 3.85786 0.5 8 0.5C12.1421 0.5 15.5 3.85786 15.5 8ZM10.25 5.75C10.25 6.99264 9.24264 8 8 8C6.75736 8 5.75 6.99264 5.75 5.75C5.75 4.50736 6.75736 3.5 8 3.5C9.24264 3.5 10.25 4.50736 10.25 5.75ZM7.99999 14.375C9.33802 14.375 10.5798 13.9628 11.6052 13.2584C12.0581 12.9473 12.2516 12.3547 11.9883 11.8724C11.4425 10.8727 10.3177 10.25 7.99995 10.25C5.68227 10.25 4.55747 10.8727 4.01161 11.8724C3.74828 12.3546 3.94183 12.9472 4.39472 13.2584C5.42014 13.9628 6.66192 14.375 7.99999 14.375Z" fill="#EE2D28"/>
</svg>
