<svg width="16" height="15" viewBox="0 0 16 15" fill="none" xmlns="http://www.w3.org/2000/svg">
<path fill-rule="evenodd" clip-rule="evenodd" d="M9.65458 0.746416C9.13001 0.586012 8.57417 0.5 8.00002 0.5C5.11839 0.5 2.69757 2.66673 2.37934 5.53075L2.16951 7.41926C2.07774 8.24514 1.80893 9.0415 1.38141 9.75404L0.899715 10.5569L0.885883 10.5799C0.746407 10.8124 0.619822 11.0233 0.526786 11.2014C0.433462 11.3801 0.322444 11.6187 0.284571 11.8963C0.162954 12.7877 0.651529 13.6507 1.4785 14.005C1.73602 14.1154 1.99771 14.1429 2.19896 14.1548C2.39957 14.1667 2.64559 14.1667 2.91665 14.1667H2.91667H2.94355H13.0565H13.0834H13.0834C13.3545 14.1667 13.6005 14.1667 13.8011 14.1548C14.0023 14.1429 14.264 14.1154 14.5216 14.005C15.3485 13.6507 15.8371 12.7877 15.7155 11.8963C15.6776 11.6187 15.5666 11.3801 15.4733 11.2014C15.3802 11.0233 15.2536 10.8123 15.1142 10.5799L15.1003 10.5569L14.6186 9.75404C14.3893 9.37179 14.2056 8.96543 14.0705 8.54332C13.7267 8.62399 13.3684 8.66667 13 8.66667C12.6572 8.66667 12.323 8.6297 12.0012 8.55954C12.1848 9.3411 12.4887 10.0914 12.9037 10.783L13.3853 11.5859C13.5431 11.8488 13.6383 12.0082 13.7005 12.1273C13.706 12.1379 13.7109 12.1475 13.7152 12.1561C13.7056 12.1569 13.6948 12.1576 13.6829 12.1583C13.5488 12.1663 13.3632 12.1667 13.0565 12.1667H2.94355C2.63686 12.1667 2.45126 12.1663 2.31715 12.1583C2.30524 12.1576 2.29449 12.1569 2.28483 12.1561C2.28917 12.1475 2.29406 12.1379 2.29958 12.1273C2.36177 12.0082 2.45691 11.8488 2.6147 11.5859L3.0964 10.783C3.6719 9.82386 4.03375 8.75186 4.15727 7.64013L4.36711 5.75161C4.57279 3.90046 6.13748 2.5 8.00002 2.5C8.19194 2.5 8.38069 2.51487 8.56512 2.54357C8.78891 1.8617 9.16558 1.24914 9.65458 0.746416ZM12.3032 2.48554C11.7307 2.74937 11.3334 3.32828 11.3334 4C11.3334 4.92047 12.0795 5.66667 13 5.66667C13.2201 5.66667 13.4301 5.62402 13.6225 5.54655L13.6207 5.53075C13.4915 4.36796 13.0157 3.32011 12.3032 2.48554Z" fill="#D6151A"/>
</svg>
