<svg width="18" height="18" viewBox="0 0 18 18" fill="none" xmlns="http://www.w3.org/2000/svg">
<g clip-path="url(#clip0_15965_2340)">
<path d="M13.0645 1.36367C13.0539 1.3707 13.0469 1.67305 13.0469 2.03164V2.68906L13.2895 2.72422C14.4426 2.90703 15.0437 4.11992 14.5059 5.16758C14.2844 5.59297 13.757 5.94453 13.2578 6.0043L13.0645 6.02539L13.0539 6.70039L13.0469 7.37891H13.198C13.6094 7.37891 14.2 7.53359 14.6641 7.76562C15.7785 8.32461 16.5168 9.43555 16.6328 10.7328C16.6504 10.9473 16.668 11.5555 16.668 12.0793V13.0391H17.3395H18.0109L17.9934 11.6926C17.9793 10.5043 17.9688 10.3109 17.9055 10.0227C17.6805 9.01719 17.2305 8.18047 16.5309 7.48438C16.1758 7.1293 15.7047 6.77422 15.3672 6.60547C15.2793 6.56328 15.2055 6.52109 15.1984 6.51758C15.1914 6.51055 15.2758 6.39805 15.3812 6.26445C15.6238 5.96914 15.8699 5.48398 15.9719 5.11133C16.0773 4.71406 16.0773 4.00039 15.9684 3.60312C15.6414 2.39375 14.5867 1.49023 13.3703 1.37422C13.2121 1.36016 13.0715 1.35312 13.0645 1.36367Z" fill="#EE2D28"/>
<path d="M10.6896 4.05664C8.52049 4.50313 7.5326 6.97109 8.80877 8.76758C9.11463 9.2 9.65604 9.62891 10.1342 9.81172C10.5701 9.98047 10.6299 9.9875 11.8146 10.0156C12.8342 10.0402 12.9818 10.0508 13.1857 10.1141C13.7553 10.3004 14.1666 10.7293 14.3318 11.3199C14.3705 11.45 14.3916 11.7559 14.4056 12.2727L14.4267 13.0391H15.0912H15.7592L15.7451 12.0617L15.731 11.0879L15.6185 10.7539C15.4744 10.3355 15.2424 9.95938 14.9435 9.66406C14.5463 9.26328 14.0506 8.98203 13.474 8.83086C13.1541 8.74648 13.0662 8.73945 12.0045 8.71836L10.876 8.69727L10.6053 8.56016C9.67361 8.08555 9.3115 6.86914 9.85994 6.05703C10.1096 5.69141 10.6474 5.375 11.0306 5.375C11.2592 5.375 11.2521 5.39961 11.2521 4.66836V4.00391L11.0869 4.00742C10.992 4.00742 10.8162 4.03203 10.6896 4.05664Z" fill="#EE2D28"/>
<path d="M0 15.3105V16.6641H6.75H13.5V15.3105V13.957H6.75H0V15.3105Z" fill="#EE2D28"/>
<path d="M14.4141 15.3105V16.6641H15.082H15.75V15.3105V13.957H15.082H14.4141V15.3105Z" fill="#EE2D28"/>
<path d="M16.6641 15.3105V16.6641H17.332H18V15.3105V13.957H17.332H16.6641V15.3105Z" fill="#EE2D28"/>
</g>
<defs>
<clipPath id="clip0_15965_2340">
<rect width="18" height="18" fill="white"/>
</clipPath>
</defs>
</svg>
