<svg width="23" height="20" viewBox="0 0 23 20" fill="none" xmlns="http://www.w3.org/2000/svg">
<path d="M16.7267 1.02777H6.27219C3.13583 1.02777 1.04492 2.6111 1.04492 6.30555V13.6944C1.04492 17.3889 3.13583 18.9722 6.27219 18.9722H16.7267C19.8631 18.9722 21.954 17.3889 21.954 13.6944V6.30555C21.954 2.6111 19.8631 1.02777 16.7267 1.02777ZM17.2181 7.4561L13.9458 10.095C13.2558 10.6544 12.3776 10.9289 11.4995 10.9289C10.6213 10.9289 9.73265 10.6544 9.0531 10.095L5.78083 7.4561C5.44629 7.18166 5.39401 6.67499 5.65538 6.33722C5.92719 5.99944 6.41856 5.9361 6.7531 6.21055L10.0254 8.84944C10.8199 9.49333 12.1686 9.49333 12.9631 8.84944L16.2354 6.21055C16.5699 5.9361 17.0717 5.98888 17.3331 6.33722C17.6049 6.67499 17.5526 7.18166 17.2181 7.4561Z" fill="white"/>
</svg>
