<svg width="170" height="148" viewBox="0 0 170 148" fill="none" xmlns="http://www.w3.org/2000/svg">
<ellipse cx="81.1998" cy="73.8132" rx="56.0788" ry="55.3599" stroke="#D6151A" stroke-width="5"/>
<path d="M106.124 55.833L76.3634 91.0874C75.7105 91.8609 75.3841 92.2476 74.9473 92.2674C74.5106 92.2873 74.1504 91.9317 73.4301 91.2206L56.2758 74.2863" stroke="#D6151A" stroke-width="5" stroke-linecap="round"/>
<path d="M168.648 39.7463C168.648 41.5481 167.143 43.0316 165.259 43.0316C163.375 43.0316 161.871 41.5481 161.871 39.7463C161.871 37.9445 163.375 36.461 165.259 36.461C167.143 36.461 168.648 37.9445 168.648 39.7463Z" stroke="#D6151A"/>
<path d="M7.27691 123.022C7.27691 124.824 5.77261 126.307 3.88846 126.307C2.0043 126.307 0.5 124.824 0.5 123.022C0.5 121.22 2.0043 119.737 3.88846 119.737C5.77261 119.737 7.27691 121.22 7.27691 123.022Z" stroke="#D6151A"/>
</svg>
