<svg width="24" height="24" viewBox="0 0 24 24" fill="none" xmlns="http://www.w3.org/2000/svg">
<circle cx="12" cy="6" r="4" fill="#D6151A"/>
<path d="M15.9291 19.9954C16.032 19.8711 16.12 19.7336 16.2958 19.4585L18.4882 16.0291C18.5412 15.9462 18.4843 15.836 18.3866 15.8245C18.0295 15.7824 17.5503 15.6612 17.0577 15.3463C16.5651 15.0314 16.2541 14.6474 16.0659 14.3409C16.0145 14.2571 15.8906 14.2517 15.8376 14.3346L13.6452 17.764C13.4694 18.0391 13.3814 18.1767 13.3118 18.3223C13.2297 18.4941 13.1666 18.6743 13.1235 18.8598C13.087 19.017 13.0699 19.1794 13.0356 19.5041L12.9913 19.9236L12.9209 20.5907L12.8549 21.2162C12.838 21.376 12.9129 21.5316 13.0483 21.6182C13.1836 21.7047 13.3563 21.7073 13.4942 21.6249L14.0343 21.3024L14.6102 20.9585L14.9724 20.7422C15.2527 20.5748 15.3929 20.4911 15.5202 20.392C15.6705 20.275 15.8076 20.1421 15.9291 19.9954Z" fill="#D6151A"/>
<path d="M19.1746 14.9554C19.6425 14.2234 19.4285 13.2508 18.6965 12.7828C17.9646 12.3149 16.9919 12.529 16.524 13.2609L16.4535 13.3712C16.3855 13.4775 16.3728 13.608 16.4213 13.7246C16.4518 13.798 16.5018 13.904 16.5773 14.0271C16.7283 14.2731 16.9798 14.5844 17.3809 14.8408C17.782 15.0972 18.1701 15.1948 18.4568 15.2286C18.6002 15.2455 18.7174 15.2464 18.7968 15.2433C18.923 15.2383 19.0361 15.172 19.1041 15.0656L19.1746 14.9554Z" fill="#D6151A"/>
<path d="M15.4147 13.5074C14.4046 13.1842 13.24 13 12 13C8.13401 13 5 14.7909 5 17C5 19.1406 7.94244 20.8884 11.6421 20.9949C11.615 20.8686 11.594 20.7432 11.5775 20.6201C11.4998 20.0424 11.4999 19.3365 11.5 18.586V18.414C11.4999 17.6635 11.4998 16.9576 11.5775 16.3799C11.6639 15.737 11.8705 15.0333 12.4519 14.4519C13.0334 13.8705 13.737 13.6639 14.3799 13.5774C14.6919 13.5355 15.0412 13.5162 15.4147 13.5074Z" fill="#D6151A"/>
</svg>
