<svg width="18" height="18" viewBox="0 0 18 18" fill="none" xmlns="http://www.w3.org/2000/svg">
<path d="M9 1.5C6.93 1.5 5.25 3.18 5.25 5.25C5.25 7.32 6.93 9 9 9C11.07 9 12.75 7.32 12.75 5.25C12.75 3.18 11.07 1.5 9 1.5ZM10.6275 4.8825L8.6025 6.9075C8.5275 6.9825 8.37 7.0575 8.265 7.08L7.4925 7.185C7.2075 7.2225 7.0125 7.0275 7.0575 6.75L7.17 5.9775C7.185 5.8725 7.26 5.715 7.3425 5.64L9.3675 3.615C9.7125 3.27 10.125 3.105 10.635 3.615C11.1375 4.1325 10.9725 4.5375 10.6275 4.8825Z" fill="#EE2D28"/>
<path d="M9.00012 10.5C5.24262 10.5 2.18262 13.02 2.18262 16.125C2.18262 16.335 2.34762 16.5 2.55762 16.5H15.4426C15.6526 16.5 15.8176 16.335 15.8176 16.125C15.8176 13.02 12.7576 10.5 9.00012 10.5Z" fill="#EE2D28"/>
</svg>
