<svg width="21" height="22" viewBox="0 0 21 22" fill="none" xmlns="http://www.w3.org/2000/svg">
<path d="M18.4667 10.1161L17.3334 8.71298C17.1167 8.44658 16.9417 7.94929 16.9417 7.59408V6.08444C16.9417 5.14314 16.2167 4.37056 15.3334 4.37056H13.9167C13.5917 4.37056 13.1167 4.18408 12.8667 3.9532L11.5501 2.74549C10.9751 2.22156 10.0334 2.22156 9.45007 2.74549L8.14173 3.96208C7.89173 4.18408 7.41673 4.37056 7.09173 4.37056H5.65006C4.76673 4.37056 4.04173 5.14314 4.04173 6.08444V7.60296C4.04173 7.94929 3.86673 8.44658 3.6584 8.71298L2.5334 10.1249C2.05007 10.7377 2.05007 11.7323 2.5334 12.345L3.6584 13.7569C3.86673 14.0233 4.04173 14.5206 4.04173 14.867V16.3855C4.04173 17.3268 4.76673 18.0994 5.65006 18.0994H7.09173C7.41673 18.0994 7.89173 18.2858 8.14173 18.5167L9.4584 19.7244C10.0334 20.2484 10.9751 20.2484 11.5584 19.7244L12.8751 18.5167C13.1251 18.2858 13.5917 18.0994 13.9251 18.0994H15.3417C16.2251 18.0994 16.9501 17.3268 16.9501 16.3855V14.8758C16.9501 14.5295 17.1251 14.0233 17.3417 13.7569L18.4751 12.3539C18.9584 11.7411 18.9584 10.7288 18.4667 10.1161ZM13.9667 9.5566L9.94173 13.8457C9.82507 13.9701 9.66673 14.0411 9.50007 14.0411C9.3334 14.0411 9.17507 13.9701 9.0584 13.8457L7.04173 11.6967C6.80007 11.4392 6.80007 11.013 7.04173 10.7554C7.2834 10.4979 7.6834 10.4979 7.92507 10.7554L9.50007 12.4338L13.0834 8.6153C13.3251 8.35778 13.7251 8.35778 13.9667 8.6153C14.2084 8.87283 14.2084 9.29908 13.9667 9.5566Z" fill="url(#paint0_linear_17927_2648)"/>
<defs>
<linearGradient id="paint0_linear_17927_2648" x1="2.1709" y1="11.235" x2="18.8365" y2="11.235" gradientUnits="userSpaceOnUse">
<stop stop-color="#56C487"/>
<stop offset="1" stop-color="#49A398"/>
</linearGradient>
</defs>
</svg>
