<svg width="18" height="18" viewBox="0 0 18 18" fill="none" xmlns="http://www.w3.org/2000/svg">
<g clip-path="url(#clip0_15965_2321)">
<path d="M7.26891 0.699609C6.98414 0.791016 6.79078 0.914062 6.58688 1.13203C6.36891 1.36406 6.23531 1.62773 6.16149 1.98633C6.11227 2.23945 6.11227 2.28516 6.165 2.55586C6.2775 3.12891 6.5693 3.54727 7.32867 4.22227C8.07399 4.88672 8.75602 5.34375 8.99508 5.34375C9.30797 5.34375 10.2291 4.6793 11.0201 3.88477C11.5755 3.33281 11.7724 2.99883 11.8498 2.48906C11.9236 1.98984 11.7267 1.43086 11.3576 1.07578C11.0447 0.780469 10.6861 0.632812 10.2748 0.632812C9.89508 0.632812 9.58922 0.773438 9.18141 1.14258L8.9986 1.30781L8.76305 1.08984C8.42555 0.780469 8.15485 0.657422 7.76813 0.64336C7.54664 0.636328 7.41656 0.650391 7.26891 0.699609Z" fill="#EE2D28"/>
<path d="M4.87852 6.02636C2.98359 6.33574 1.43672 7.46777 0.589453 9.1623C0.209766 9.92168 0.0234375 10.7478 0.0234375 11.6689C0.0234375 12.2525 0.0550781 12.5408 0.181641 13.0576C0.701953 15.174 2.4 16.7842 4.60781 17.2658C4.92773 17.3361 5.07539 17.3467 5.71523 17.3432C6.34805 17.3432 6.50625 17.3326 6.82266 17.2623C7.52226 17.1146 8.20078 16.8404 8.71758 16.5064C8.8582 16.4186 8.98477 16.3447 9.00234 16.3447C9.01992 16.3447 9.14648 16.4186 9.28711 16.5064C9.80391 16.8404 10.4824 17.1146 11.182 17.2623C11.4984 17.3326 11.6566 17.3432 12.2895 17.3432C12.9293 17.3467 13.077 17.3361 13.3969 17.2658C15.6047 16.7842 17.3027 15.174 17.823 13.0576C17.9496 12.5408 17.9812 12.2525 17.9812 11.6689C17.9812 10.9201 17.8898 10.3752 17.6437 9.70019C17.018 7.97402 15.5062 6.60644 13.7168 6.14941C12.9363 5.94902 11.9062 5.9209 11.175 6.07558C10.4859 6.22324 9.80039 6.49746 9.28711 6.83144C9.14648 6.91933 9.01992 6.99316 9.00234 6.99316C8.98477 6.99316 8.8582 6.91933 8.71758 6.83144C8.2043 6.49746 7.52226 6.22676 6.82969 6.07558C6.37969 5.98066 5.33203 5.95254 4.87852 6.02636ZM6.55898 7.5205C6.91758 7.59433 7.31133 7.72793 7.59609 7.87558C7.91601 8.04082 7.90898 8.01972 7.75078 8.23066C6.62578 9.7248 6.30234 11.7006 6.88945 13.4619C7.08984 14.0631 7.38164 14.6186 7.75078 15.1072C7.90898 15.3182 7.91601 15.2971 7.59609 15.4623C7.31484 15.61 6.8332 15.7717 6.48164 15.8385C5.82422 15.965 4.88906 15.8877 4.27734 15.6592C2.56875 15.0158 1.47891 13.4619 1.47891 11.6689C1.47891 9.81269 2.66016 8.19902 4.43203 7.63301C5.11406 7.41504 5.84883 7.37636 6.55898 7.5205ZM12.975 7.48886C13.3055 7.53808 13.8328 7.70332 14.1527 7.86152C15.6258 8.5998 16.5258 10.0412 16.5258 11.6689C16.5258 13.6904 15.1195 15.4131 13.1367 15.8209C12.423 15.9686 11.5898 15.9123 10.9078 15.6697C10.5879 15.5572 10.1273 15.3393 10.1273 15.3006C10.1273 15.29 10.1871 15.1986 10.2609 15.1002C11.5441 13.3916 11.7656 11.0326 10.8164 9.14472C10.6371 8.78965 10.4684 8.51191 10.2539 8.23066C10.0957 8.01972 10.0887 8.04082 10.4086 7.87558C11.168 7.48535 12.0187 7.35527 12.975 7.48886ZM9.20976 9.28183C10.0676 10.5404 10.1836 12.1471 9.51211 13.5146C9.32578 13.8978 9.06211 14.3057 9.00234 14.3057C8.94258 14.3057 8.67891 13.8978 8.49258 13.5146C7.93008 12.3686 7.9125 11.0432 8.44336 9.91113C8.65781 9.45761 8.94609 9.01816 9.01641 9.04277C9.0375 9.0498 9.12187 9.15527 9.20976 9.28183Z" fill="#EE2D28"/>
</g>
<defs>
<clipPath id="clip0_15965_2321">
<rect width="18" height="18" fill="white"/>
</clipPath>
</defs>
</svg>
