<svg width="18" height="18" viewBox="0 0 18 18" fill="none" xmlns="http://www.w3.org/2000/svg">
<g clip-path="url(#clip0_15965_2504)">
<path d="M0.384922 8.89417C0.3845 10.4065 0.78275 11.8832 1.54002 13.1848L0.3125 17.6319L4.89913 16.4386C6.16773 17.1239 7.5891 17.4829 9.0335 17.483H9.0373C13.8055 17.483 17.687 13.6331 17.689 8.90094C17.69 6.6079 16.7908 4.45166 15.1572 2.82943C13.5238 1.20734 11.3515 0.313547 9.03695 0.3125C4.26814 0.3125 0.386961 4.16227 0.384992 8.89417" fill="url(#paint0_linear_15965_2504)"/>
<path d="M0.0752344 8.88949C0.0747422 10.4563 0.487266 11.9858 1.27153 13.334L0 17.9405L4.75109 16.7044C6.06016 17.4126 7.53405 17.786 9.03382 17.7866H9.03769C13.977 17.7866 17.9979 13.7981 18 8.8966C18.0008 6.52116 17.0693 4.28742 15.3773 2.60707C13.6851 0.92693 11.4351 0.000976744 9.03769 0C4.09753 0 0.0772031 3.98791 0.0752344 8.88949ZM2.90468 13.1018L2.72728 12.8223C1.98155 11.6458 1.58794 10.2862 1.5885 8.89005C1.59005 4.81598 4.93158 1.5014 9.0405 1.5014C11.0303 1.50223 12.9004 2.27191 14.3069 3.66837C15.7134 5.06498 16.4873 6.92149 16.4868 8.89605C16.485 12.9701 13.1434 16.2851 9.03769 16.2851H9.03473C7.69788 16.2844 6.38677 15.9282 5.24334 15.255L4.97123 15.0949L2.15184 15.8284L2.90468 13.1018Z" fill="url(#paint1_linear_15965_2504)"/>
<path d="M6.79836 5.17035C6.63059 4.80037 6.45404 4.79291 6.2945 4.78642C6.16386 4.78084 6.01452 4.78126 5.86531 4.78126C5.71597 4.78126 5.47332 4.837 5.26822 5.05921C5.06291 5.28163 4.48438 5.81912 4.48438 6.9123C4.48438 8.00549 5.28685 9.06205 5.39872 9.21044C5.51073 9.35856 6.94791 11.6737 9.22407 12.5644C11.1158 13.3045 11.5007 13.1573 11.9113 13.1202C12.3219 13.0832 13.2362 12.5829 13.4228 12.064C13.6095 11.5452 13.6095 11.1005 13.5535 11.0076C13.4975 10.915 13.3482 10.8594 13.1242 10.7483C12.9003 10.6373 11.7993 10.0996 11.594 10.0255C11.3887 9.95137 11.2394 9.9144 11.0901 10.1369C10.9407 10.359 10.5119 10.8594 10.3812 11.0076C10.2506 11.1561 10.1199 11.1746 9.89605 11.0635C9.67196 10.952 8.95077 10.7176 8.09513 9.96072C7.42941 9.37175 6.97998 8.64442 6.84934 8.42193C6.71869 8.19979 6.83534 8.07937 6.94763 7.96865C7.04825 7.86909 7.17165 7.70919 7.28373 7.57949C7.39538 7.44972 7.43265 7.35714 7.50732 7.20895C7.58206 7.06063 7.54466 6.93086 7.48876 6.81972C7.43265 6.70858 6.99748 5.60968 6.79836 5.17035Z" fill="white"/>
</g>
<defs>
<linearGradient id="paint0_linear_15965_2504" x1="869.139" y1="1732.25" x2="869.139" y2="0.3125" gradientUnits="userSpaceOnUse">
<stop stop-color="#1FAF38"/>
<stop offset="1" stop-color="#60D669"/>
</linearGradient>
<linearGradient id="paint1_linear_15965_2504" x1="900" y1="1794.05" x2="900" y2="0" gradientUnits="userSpaceOnUse">
<stop stop-color="#F9F9F9"/>
<stop offset="1" stop-color="white"/>
</linearGradient>
<clipPath id="clip0_15965_2504">
<rect width="18" height="18" fill="white"/>
</clipPath>
</defs>
</svg>
